<?xml version="1.0" encoding="UTF-8" standalone="no"?>

<!DOCTYPE svg PUBLIC "-//W3C//DTD SVG 1.1//EN" "http://www.w3.org/Graphics/SVG/1.1/DTD/svg11.dtd">

<svg version="1.0" xmlns="http://www.w3.org/2000/svg"
 width="80" height="80" viewBox="0 0 1024.000000 1024.000000"
 preserveAspectRatio="xMidYMid meet">

<g transform="translate(0.000000,1024.000000) scale(0.100000,-0.100000)"
fill="#000000" stroke="none">
<path d="M8781 9729 c-247 -64 -418 -194 -601 -459 -299 -432 -485 -643 -921
-1046 -37 -35 -100 -86 -345 -282 -73 -58 -363 -268 -469 -338 -154 -103 -216
-124 -293 -98 -107 37 -215 131 -262 228 -42 89 -47 123 -6 41 49 -97 111
-164 189 -204 70 -35 116 -36 159 -2 21 17 21 17 -13 30 -125 48 -203 112
-249 205 -62 125 -48 251 38 337 70 70 150 86 253 50 99 -34 399 -188 492
-253 27 -19 28 -19 56 1 57 41 56 42 -45 106 -148 94 -261 158 -446 252 -15 8
-30 18 -33 23 -18 29 165 -60 466 -228 81 -45 150 -82 155 -82 18 1 77 57 70
68 -12 20 -241 169 -386 252 -160 91 -155 88 -148 95 12 12 291 -146 456 -259
l113 -78 47 39 c136 110 472 436 472 458 0 15 -83 95 -99 95 -8 0 -44 -29 -82
-65 -112 -105 -170 -123 -274 -84 -157 58 -205 220 -120 404 l28 59 -34 29
c-81 69 -71 70 -162 -22 -97 -98 -154 -131 -229 -131 -144 1 -230 114 -214
284 4 39 11 88 17 110 6 21 8 44 5 52 -5 14 -100 64 -121 64 -6 0 -28 -33 -49
-72 -71 -134 -145 -191 -252 -192 -119 -2 -207 67 -232 182 -9 39 -21 173 -22
234 0 12 -14 19 -50 27 -83 18 -82 18 -114 -67 -73 -194 -172 -265 -319 -226
-121 32 -186 123 -210 294 -5 41 -13 78 -16 82 -3 4 -34 9 -69 11 -72 5 -75 2
-87 -78 -16 -110 -71 -202 -143 -239 -47 -24 -128 -36 -174 -27 -69 14 -96 28
-146 78 -48 48 -87 129 -98 204 -3 19 -9 38 -14 42 -9 10 -140 -2 -141 -12 -9
-115 -29 -222 -49 -260 -57 -111 -202 -167 -321 -125 -78 28 -136 90 -184 197
-28 63 -43 86 -55 83 -8 -2 -36 -9 -62 -16 l-48 -13 0 -114 c0 -140 -12 -190
-57 -243 -44 -51 -96 -78 -166 -86 -103 -12 -179 33 -279 163 -33 43 -64 79
-69 81 -14 6 -109 -40 -109 -52 0 -6 9 -49 20 -96 32 -139 24 -212 -30 -274
-60 -67 -190 -98 -274 -65 -38 15 -138 94 -189 148 l-37 41 -50 -36 c-27 -20
-52 -39 -55 -43 -2 -4 11 -39 30 -78 44 -90 59 -151 53 -213 -11 -110 -122
-200 -247 -200 -59 0 -125 31 -220 104 -41 31 -77 56 -81 56 -4 0 -28 -23 -55
-51 -35 -37 -46 -55 -39 -64 119 -172 154 -240 154 -303 0 -39 -42 -122 -81
-159 -95 -89 -190 -91 -363 -7 -54 27 -72 32 -83 23 -15 -13 -73 -97 -73 -106
0 -3 36 -43 79 -88 98 -102 121 -145 121 -222 0 -75 -32 -145 -93 -200 -79
-73 -147 -76 -303 -13 -41 16 -83 30 -92 30 -15 0 -82 -98 -82 -119 0 -5 34
-36 75 -70 123 -102 159 -185 126 -290 -49 -158 -164 -214 -361 -177 -46 9
-88 12 -91 8 -11 -10 -49 -110 -49 -127 0 -8 31 -30 69 -50 95 -50 145 -96
177 -161 22 -46 26 -63 21 -109 -12 -120 -94 -212 -210 -235 -33 -6 -88 -14
-121 -17 -34 -3 -64 -8 -68 -11 -9 -9 -29 -133 -23 -143 3 -4 34 -17 70 -29
140 -47 216 -129 223 -244 5 -76 -9 -128 -48 -188 -47 -71 -136 -114 -275
-132 -22 -3 -41 -5 -41 -6 -3 0 -16 -77 -20 -117 l-4 -42 57 -11 c156 -32 220
-72 267 -163 24 -46 29 -69 29 -124 0 -135 -78 -219 -260 -278 -52 -16 -53
-18 -52 -53 0 -20 6 -59 12 -87 l12 -50 90 -5 c106 -7 155 -28 208 -91 71 -83
88 -204 41 -298 -30 -59 -101 -121 -191 -167 -62 -31 -62 -32 -24 -135 l21
-56 86 12 c48 6 105 9 129 5 152 -23 261 -201 211 -345 -22 -67 -57 -108 -142
-171 -41 -30 -74 -57 -74 -60 0 -16 63 -126 75 -130 8 -3 49 6 92 20 97 32
179 34 239 6 97 -47 171 -175 161 -276 -7 -72 -39 -128 -118 -210 -38 -39 -69
-77 -69 -85 0 -21 71 -119 86 -119 7 0 48 18 91 40 136 69 241 63 335 -19 136
-120 133 -268 -9 -421 l-55 -60 23 -32 c13 -18 39 -47 58 -65 l35 -32 36 22
c19 12 57 36 83 54 52 35 132 63 181 63 49 0 148 -52 188 -99 45 -53 72 -134
63 -192 -6 -42 -54 -145 -94 -204 -33 -48 -27 -70 30 -115 29 -22 55 -39 60
-38 4 2 50 44 102 94 112 108 150 129 232 129 100 0 209 -75 253 -173 27 -63
20 -190 -16 -294 -23 -65 -27 -89 -19 -96 21 -17 96 -52 110 -52 7 0 27 19 44
43 59 81 151 172 197 195 25 13 71 26 101 29 146 15 323 -94 374 -233 23 -61
25 -100 11 -224 -7 -65 -7 -87 3 -96 17 -15 122 -43 134 -35 5 3 15 27 23 53
18 68 92 190 134 222 52 39 106 55 173 51 73 -5 122 -25 174 -72 66 -59 93
-133 98 -263 5 -119 3 -114 36 -121 17 -4 51 -7 77 -8 47 -1 47 -1 53 37 20
130 74 254 130 296 75 58 218 71 301 28 45 -23 115 -93 137 -137 24 -49 48
-127 54 -175 7 -64 16 -70 92 -59 36 5 66 10 67 12 1 1 3 47 5 102 4 150 38
232 119 286 23 15 63 32 91 38 175 38 276 -29 358 -237 44 -111 36 -106 115
-82 l67 21 -8 62 c-14 110 -9 207 14 257 46 99 134 155 246 154 62 0 71 -3
125 -40 51 -37 120 -124 187 -239 10 -16 16 -14 78 16 49 25 66 38 62 49 -19
49 -45 184 -45 236 0 149 130 270 269 249 67 -10 107 -35 196 -122 122 -118
107 -112 170 -68 30 20 55 44 55 51 0 8 -16 46 -35 85 -83 163 -81 272 7 358
97 96 204 91 341 -18 151 -119 149 -119 216 -46 l41 45 -54 73 c-119 157 -132
259 -50 378 36 53 116 93 184 94 62 0 108 -17 216 -82 39 -24 79 -43 88 -43
16 0 99 97 94 110 -2 4 -34 40 -71 81 -76 81 -114 147 -123 213 -20 139 108
287 247 286 33 -1 125 -29 202 -64 l37 -16 40 61 c22 34 40 67 40 73 0 6 -19
26 -42 45 -63 51 -131 133 -150 182 -47 122 14 284 129 340 57 28 152 30 222
5 75 -27 89 -23 116 37 39 85 38 86 -40 134 -142 86 -190 159 -190 283 1 82
22 138 74 193 53 58 95 72 216 72 l109 0 18 65 c23 87 23 87 -19 101 -67 21
-151 68 -187 103 -122 122 -85 364 67 443 24 12 174 43 210 43 4 0 7 35 5 77
l-3 77 -83 18 c-100 22 -145 44 -193 95 -47 49 -69 109 -69 183 0 146 92 251
245 279 32 6 63 15 68 20 5 5 6 40 1 83 l-9 73 -105 6 c-122 7 -168 25 -222
88 -49 57 -72 129 -66 205 10 114 71 190 202 250 40 19 76 38 78 42 3 5 -6 38
-21 74 l-26 65 -120 0 c-105 0 -126 3 -167 23 -93 46 -152 143 -150 249 2 99
50 176 151 240 97 61 95 57 59 122 -47 86 -43 84 -127 56 -128 -43 -229 -27
-283 45 -12 17 -25 30 -30 30 -4 0 -38 -29 -75 -65 l-68 -65 24 -42 c184 -329
360 -812 405 -1113 3 -22 13 -74 21 -115 7 -41 17 -95 21 -120 4 -25 8 -47 9
-50 9 -32 24 -180 18 -180 -9 0 -21 49 -27 110 -9 80 -76 421 -118 590 -36
147 -92 310 -178 510 -74 174 -179 380 -193 380 -6 0 -23 -12 -38 -26 l-28
-27 39 -77 c60 -120 217 -525 217 -560 0 -5 11 -55 33 -155 5 -22 11 -62 14
-90 3 -42 2 -47 -9 -32 -7 10 -16 39 -19 65 -15 104 -80 319 -149 492 -56 141
-143 320 -156 320 -4 0 -16 -9 -26 -20 -17 -18 -16 -22 23 -93 49 -90 154
-324 182 -408 48 -141 81 -287 68 -295 -5 -3 -11 -4 -12 -3 -2 2 -18 60 -35
128 -36 137 -59 201 -72 201 -10 0 -9 -5 26 -145 39 -159 40 -172 3 -142 -8 6
-23 50 -33 97 -33 158 -96 349 -162 491 -25 55 -49 99 -53 99 -4 0 -13 -7 -20
-15 -11 -13 -4 -34 38 -123 58 -124 111 -270 153 -425 16 -59 29 -109 29 -111
0 -2 -13 -6 -30 -8 -19 -3 -30 0 -30 8 0 6 -27 94 -60 194 -60 184 -150 390
-170 390 -25 0 -18 -35 29 -144 63 -144 161 -418 161 -449 0 -13 -11 -38 -24
-56 l-25 -33 -16 58 c-9 33 -20 70 -25 84 -5 14 -16 52 -25 85 -20 74 -121
333 -141 360 -12 17 -16 17 -29 5 -12 -13 -7 -31 41 -140 30 -69 78 -199 106
-290 49 -157 52 -172 55 -295 3 -106 0 -143 -16 -200 -18 -66 -19 -68 -20 -29
-2 84 -32 267 -65 401 -53 213 -148 463 -176 463 -17 0 -12 -21 41 -165 108
-298 156 -533 157 -760 1 -118 0 -123 -35 -194 -64 -134 -212 -261 -357 -306
-278 -89 -679 -38 -1010 127 l-79 40 -33 -39 c-17 -21 -30 -41 -27 -46 7 -12
112 -63 212 -102 186 -72 370 -111 581 -121 136 -7 260 9 377 47 129 42 297
178 381 308 66 103 151 302 165 386 3 17 8 48 12 70 3 22 8 49 10 60 2 11 4
43 4 72 1 62 18 83 68 83 46 0 91 -34 150 -114 149 -201 335 -618 363 -812 25
-174 5 -649 -34 -819 -2 -5 -6 -28 -10 -50 -35 -187 -83 -378 -153 -605 -52
-169 -86 -255 -180 -450 -94 -196 -146 -289 -246 -440 -77 -116 -218 -306
-268 -360 -17 -19 -52 -57 -77 -85 -333 -367 -676 -641 -1094 -873 -427 -236
-921 -385 -1498 -452 -102 -12 -759 -8 -840 5 -43 7 -91 15 -290 50 -315 57
-852 244 -1145 399 -195 104 -616 378 -710 463 -11 10 -43 38 -70 62 -354 313
-670 704 -920 1136 -54 94 -113 202 -131 240 -74 162 -89 196 -139 325 -58
147 -83 227 -115 365 -11 50 -27 117 -35 150 -15 65 -80 414 -89 480 -14 103
-18 497 -7 705 12 225 13 241 25 315 96 615 184 908 395 1320 48 94 107 202
132 240 287 441 263 408 383 555 131 160 408 426 581 556 392 296 668 442
1105 587 149 50 237 73 580 152 207 49 327 62 600 70 296 8 521 -5 755 -46 99
-17 187 -32 195 -34 159 -24 614 -158 775 -227 240 -104 452 -217 670 -359
110 -71 235 -160 235 -166 0 -11 -32 6 -127 69 -59 40 -117 77 -128 83 -11 6
-40 24 -65 40 -52 33 -283 149 -320 160 -45 14 -94 7 -112 -16 -21 -25 -23
-71 -6 -99 25 -39 4 -38 -112 6 -63 23 -224 24 -310 1 -195 -53 -331 -216
-347 -416 -5 -68 14 -164 72 -361 52 -171 79 -453 57 -581 -6 -35 -14 -80 -17
-101 -4 -25 -15 -44 -39 -61 l-33 -25 14 51 c7 29 16 81 19 117 4 36 8 68 10
71 9 15 -18 315 -35 394 -82 369 -252 582 -543 681 -113 38 -229 55 -352 52
-79 -2 -120 1 -137 10 -13 7 -48 44 -78 83 -64 81 -135 145 -249 223 -174 118
-290 158 -462 159 -131 1 -203 -15 -490 -111 -83 -27 -345 -146 -400 -181
l-35 -23 31 6 c17 2 60 18 95 34 35 16 96 40 134 52 39 12 89 29 113 37 24 8
46 12 49 9 8 -8 11 -7 -87 -45 -118 -46 -300 -133 -300 -143 0 -4 37 6 83 23
175 65 375 130 450 144 9 2 20 6 25 8 4 3 23 8 42 11 19 3 62 10 95 16 61 10
112 13 104 6 -2 -2 -22 -6 -44 -10 -22 -3 -74 -15 -115 -26 -288 -77 -411
-120 -628 -221 -46 -22 -85 -39 -87 -39 -11 0 -280 -155 -370 -213 -521 -338
-843 -658 -1133 -1125 -329 -531 -509 -1089 -562 -1747 -13 -159 -13 -462 0
-583 24 -219 96 -570 137 -665 9 -20 35 -55 59 -76 35 -33 45 -51 59 -108 21
-89 69 -200 171 -403 262 -522 504 -800 801 -924 156 -64 191 -71 383 -70 163
0 181 2 258 28 164 54 241 97 334 184 32 30 39 33 53 22 20 -16 32 -5 15 15
-10 12 -5 23 30 65 29 34 40 54 33 61 -7 7 -28 -9 -64 -46 -118 -124 -273
-215 -444 -261 -95 -26 -315 -26 -395 0 -98 31 -200 78 -200 92 0 18 0 18 52
-5 125 -53 329 -66 480 -30 79 19 229 84 309 135 193 121 377 380 462 649 78
249 62 496 -45 695 -121 221 -191 297 -353 378 -207 104 -487 127 -726 61
-300 -83 -571 -332 -670 -617 -116 -331 -9 -742 279 -1063 68 -76 41 -59 -38
24 -172 183 -290 437 -319 685 -5 51 -8 98 -6 105 2 7 6 46 9 88 4 42 13 101
22 130 23 80 106 246 153 309 59 79 176 195 247 246 71 51 218 122 316 155 70
22 80 35 51 64 -32 33 -128 2 -304 -98 -136 -77 -212 -140 -409 -335 -188
-187 -237 -229 -313 -262 -54 -24 -142 -36 -151 -21 -4 6 -4 11 1 12 60 5 176
60 238 112 27 23 77 71 110 107 262 284 382 383 581 483 47 24 477 197 489
197 12 0 159 73 230 115 299 177 487 381 762 830 103 168 144 245 175 325 14
36 29 74 33 85 15 38 17 60 18 151 1 73 -4 102 -23 150 -35 87 -81 153 -149
217 -203 188 -450 263 -703 212 -142 -28 -211 -52 -293 -103 -123 -78 -128
-65 -6 16 143 96 291 142 456 143 106 0 154 -8 245 -39 95 -33 244 -115 285
-157 48 -49 50 -50 107 -8 59 43 163 96 252 129 l59 21 -21 21 c-23 23 -26 22
-166 -27 -61 -22 -178 -83 -208 -109 -10 -9 -18 -10 -18 -4 0 25 152 111 269
151 41 14 76 31 78 36 1 6 -8 23 -21 40 -18 23 -27 27 -37 19 -8 -6 -52 -26
-99 -45 -47 -18 -111 -48 -143 -67 -74 -43 -87 -35 -15 10 54 34 117 63 198
92 75 27 74 25 39 102 -38 82 -65 175 -74 247 -11 92 -9 92 -93 8 -107 -107
-173 -135 -327 -135 -132 -1 -195 16 -284 75 -154 103 -239 246 -257 433 -5
50 -3 67 5 62 6 -4 11 -22 11 -40 0 -93 84 -262 175 -352 145 -142 343 -182
525 -106 123 52 216 164 249 302 35 147 132 382 182 444 5 6 26 34 47 61 37
48 132 134 132 119 0 -4 -17 -26 -38 -49 -144 -161 -241 -360 -288 -594 -46
-231 58 -541 238 -709 63 -59 144 -122 157 -122 16 0 13 15 -5 31 -66 54 -174
273 -214 433 -48 191 -37 394 30 541 11 24 20 47 20 50 0 4 18 37 39 73 41 71
108 145 181 201 50 38 53 43 -45 -64 -134 -147 -212 -334 -222 -532 -7 -127 3
-191 49 -333 50 -156 120 -281 203 -365 112 -114 184 -143 378 -152 212 -10
353 14 690 117 76 23 140 40 143 37 7 -7 -128 -65 -170 -72 -49 -10 -53 -21
-11 -29 58 -11 31 -23 -60 -28 -76 -4 -106 -11 -94 -22 2 -2 27 -6 54 -9 28
-3 51 -6 53 -6 2 -1 0 -5 -3 -11 -3 -5 -38 -9 -78 -8 -97 2 -167 -4 -167 -14
0 -4 21 -8 48 -9 57 -1 134 -23 112 -32 -8 -4 -58 -8 -110 -9 -104 -3 -129
-18 -37 -22 32 -2 63 -8 69 -14 13 -13 -1 -15 -79 -12 -23 1 -52 -4 -65 -12
-22 -12 -22 -13 15 -18 21 -3 39 -9 40 -15 1 -6 -53 -13 -138 -17 -287 -13
-461 -64 -694 -202 -226 -134 -392 -320 -530 -593 -112 -225 -151 -371 -156
-593 -6 -204 23 -386 90 -580 46 -133 69 -181 138 -290 33 -52 70 -113 81
-136 12 -23 39 -62 61 -88 50 -58 191 -180 268 -231 31 -21 57 -39 57 -41 0
-5 -94 39 -100 47 -3 3 -23 17 -45 31 -105 66 -336 274 -402 363 -77 103 -165
286 -195 404 -16 64 -32 175 -42 296 -5 55 -8 60 -16 30 -31 -121 11 -399 82
-540 52 -102 159 -262 197 -293 9 -7 56 -52 106 -100 148 -144 340 -302 368
-302 6 0 8 -3 4 -6 -12 -12 -181 95 -286 181 -67 55 -181 158 -217 196 -93 98
-191 266 -242 414 -31 92 -63 290 -63 395 l0 45 -15 -40 c-12 -32 -14 -65 -9
-165 7 -126 15 -172 54 -288 33 -100 142 -281 223 -369 117 -127 262 -265 338
-322 109 -82 118 -91 50 -53 -93 52 -210 145 -340 271 -69 67 -126 121 -127
121 -1 0 -1 -10 -1 -23 1 -12 28 -51 62 -87 34 -36 75 -81 92 -100 39 -44 190
-187 229 -217 48 -38 17 -26 -39 14 -73 53 -180 146 -259 226 -62 63 -87 75
-87 43 0 -24 236 -273 315 -331 22 -17 42 -33 45 -36 3 -3 14 -11 25 -17 11
-6 15 -12 9 -12 -31 -1 -344 248 -341 271 2 17 -20 49 -34 49 -5 0 -9 -9 -9
-20 0 -11 6 -20 14 -20 11 0 13 -9 10 -33 -5 -30 2 -39 103 -137 59 -58 124
-118 143 -134 19 -15 28 -25 20 -20 -27 14 -95 62 -120 86 -25 24 -148 118
-153 118 -2 0 -2 -13 -1 -28 1 -22 22 -49 83 -107 45 -43 79 -80 76 -83 -2 -2
-39 23 -81 57 -57 45 -80 58 -86 49 -16 -26 -6 -45 70 -123 87 -89 91 -92 150
-126 l42 -24 22 27 c47 55 189 158 272 197 47 23 86 45 86 49 0 4 19 8 42 9
25 1 47 8 53 17 8 10 34 16 88 18 42 2 79 7 83 11 4 4 18 4 32 0 19 -4 23 -3
17 7 -6 10 1 11 31 5 21 -4 62 -8 89 -10 87 -4 74 -8 -45 -16 -63 -4 -126 -9
-140 -11 -14 -3 -45 -8 -70 -12 -102 -17 -253 -80 -351 -149 -186 -130 -295
-255 -389 -442 -50 -100 -100 -265 -100 -331 0 -18 -4 -35 -9 -39 -6 -3 -9 2
-7 12 2 10 7 45 11 78 17 139 102 339 206 484 58 81 59 84 40 98 -40 27 -102
79 -171 142 -48 43 -70 58 -70 46 0 -34 -84 -255 -170 -445 -160 -356 -207
-489 -226 -643 -3 -23 -7 -48 -10 -55 -6 -19 -6 -292 1 -322 2 -14 7 -38 11
-55 51 -261 207 -499 396 -608 123 -71 422 -169 678 -222 91 -19 140 -32 110
-30 -225 21 -642 142 -834 243 -122 64 -243 214 -311 386 -32 82 -71 224 -86
316 -7 41 -17 81 -22 87 -16 22 -27 14 -21 -16 3 -16 1 -32 -5 -35 -9 -6 -111
94 -239 234 -28 31 -44 42 -51 35 -8 -8 34 -57 136 -165 126 -130 150 -161
164 -204 8 -28 21 -62 29 -76 13 -24 -201 179 -362 344 -60 61 -81 77 -90 68
-9 -9 32 -55 173 -194 171 -169 268 -278 314 -353 10 -16 14 -26 9 -22 -262
248 -352 335 -462 445 -88 88 -139 132 -150 130 -12 -3 59 -79 244 -264 144
-142 290 -293 325 -334 l64 -75 -130 115 c-72 64 -161 142 -200 175 -73 61
-325 309 -384 376 l-33 39 51 0 c37 0 50 -3 45 -12 -5 -7 -3 -8 7 -2 8 5 25
10 39 11 66 8 155 25 172 34 10 5 18 18 18 29 0 18 -2 18 -42 3 -69 -25 -300
-22 -407 5 -109 28 -269 105 -396 190 -106 70 -295 251 -328 313 -17 30 -13
28 27 -16 55 -61 61 -42 7 23 -109 132 -291 459 -416 749 -27 62 -51 111 -53
108 -17 -17 129 -357 251 -584 37 -68 66 -126 64 -127 -13 -13 -149 214 -222
371 -47 101 -187 454 -209 527 -3 10 -9 18 -14 18 -13 0 8 -85 57 -228 71
-209 157 -398 285 -627 34 -60 70 -127 81 -147 71 -133 322 -467 510 -677 40
-45 318 -318 375 -367 64 -57 218 -176 263 -203 41 -25 80 -23 91 5 11 28 -22
70 -116 152 -189 162 -358 344 -532 571 -9 12 -8 12 10 3 12 -6 53 -47 90 -89
68 -77 182 -198 305 -323 35 -36 107 -103 159 -150 52 -46 131 -118 175 -160
147 -141 441 -339 660 -445 424 -206 918 -309 1505 -314 202 -2 365 12 530 45
145 29 340 101 340 125 0 12 -83 6 -152 -12 -75 -19 -388 -49 -518 -49 -305 0
-713 56 -1024 141 -329 90 -533 177 -615 263 -40 41 -36 58 6 28 93 -65 394
-183 593 -232 126 -31 271 -61 310 -65 38 -4 181 -25 215 -31 20 -4 27 -3 20
4 -5 5 -30 13 -54 16 -129 17 -380 67 -491 96 -114 31 -300 96 -395 138 -65
28 -256 143 -292 176 -20 16 -32 46 -19 46 2 0 40 -20 84 -44 285 -158 545
-242 990 -321 19 -3 32 -1 32 5 0 5 -8 10 -17 11 -92 4 -417 82 -560 135 -54
19 -118 42 -143 51 -71 24 -289 139 -352 186 -47 35 -79 80 -66 92 2 2 44 -22
93 -52 50 -30 97 -57 105 -60 8 -3 60 -25 115 -49 177 -75 426 -151 620 -189
128 -24 204 -38 229 -40 26 -3 94 -13 136 -21 8 -2 29 -5 45 -8 17 -3 36 -2
44 3 16 10 -6 15 -114 26 -33 4 -76 10 -95 15 -19 5 -55 11 -80 15 -25 4 -54
8 -66 10 -11 1 -45 8 -75 14 -31 7 -69 14 -85 17 -165 30 -514 157 -664 242
-157 88 -220 137 -220 169 0 28 10 29 41 4 47 -36 185 -114 279 -156 147 -65
467 -163 620 -190 3 0 32 -6 65 -13 63 -12 287 -47 368 -56 28 -3 47 -2 47 4
0 11 0 11 -45 15 -102 11 -142 17 -245 34 -229 39 -454 96 -583 147 -272 109
-537 271 -537 330 0 21 9 18 100 -41 117 -76 303 -167 440 -215 201 -72 531
-145 750 -166 30 -3 65 -7 77 -10 12 -2 24 0 28 6 7 11 -4 14 -155 34 -63 8
-124 17 -135 20 -390 86 -650 179 -882 314 -76 45 -178 131 -154 132 7 0 104
-45 215 -99 308 -151 452 -202 736 -257 14 -3 41 -9 60 -14 34 -8 72 -13 190
-25 30 -3 67 -8 83 -11 20 -4 27 -2 27 10 0 10 -9 16 -24 16 -13 0 -82 11
-153 25 -70 14 -139 27 -153 30 -76 14 -303 82 -420 127 -185 70 -292 124
-288 146 2 12 15 18 44 20 32 2 65 -7 142 -42 205 -92 395 -149 657 -196 321
-57 333 -62 490 -221 169 -170 309 -270 435 -311 154 -49 470 -2 755 112 44
17 100 40 125 50 464 182 960 533 1368 967 442 469 737 1039 827 1598 19 116
19 189 -1 322 -39 262 -181 486 -369 580 -22 11 -70 30 -107 42 -81 27 -204
26 -422 -4 -123 -17 -155 -17 -275 -7 -283 24 -543 108 -768 248 l-76 48 -61
-64 c-159 -167 -225 -259 -388 -546 -137 -239 -212 -345 -310 -440 -163 -158
-332 -250 -558 -304 -75 -18 -125 -24 -235 -24 -163 -1 -228 11 -370 67 -138
54 -154 77 -21 30 21 -7 41 -13 44 -13 14 0 -37 28 -80 45 -27 10 -48 22 -48
27 0 6 6 8 13 5 171 -76 226 -89 408 -94 124 -4 174 -2 240 12 46 9 91 18 99
20 30 6 196 73 235 95 43 24 157 99 165 109 3 3 23 19 45 35 50 37 154 144
211 218 52 67 118 176 178 296 92 183 255 397 476 627 53 55 148 154 211 220
63 65 183 191 268 280 180 187 1097 1102 1191 1189 36 33 106 99 155 146 114
109 383 346 546 480 218 179 279 222 639 454 295 190 444 466 449 833 1 92 -3
141 -18 201 -47 191 -126 336 -243 450 -102 100 -201 159 -345 208 -69 24 -96
27 -238 30 -132 2 -173 -1 -234 -17z m453 -93 c116 -39 211 -99 296 -185 295
-297 293 -738 -4 -1014 -83 -78 -167 -133 -313 -208 -197 -102 -455 -291 -665
-486 -51 -48 -152 -142 -223 -208 -116 -107 -227 -211 -321 -300 -17 -16 -132
-127 -255 -245 -123 -119 -280 -270 -349 -336 -131 -125 -505 -504 -675 -684
-55 -58 -129 -136 -166 -175 -133 -141 -311 -341 -334 -375 -12 -19 -55 -71
-94 -115 -40 -44 -91 -106 -114 -137 -23 -32 -46 -58 -51 -58 -5 0 -1 10 8 23
9 12 21 33 27 47 10 25 52 78 164 205 38 44 47 72 18 56 -16 -9 -51 -43 -185
-181 -66 -67 -41 -25 33 57 38 43 74 83 78 88 4 6 50 51 102 100 123 117 294
303 287 310 -2 2 -60 -51 -128 -118 -250 -243 -428 -407 -426 -391 1 9 9 22
17 28 8 6 22 21 30 33 15 22 28 37 215 239 117 126 195 220 189 226 -3 3 16
19 41 37 56 41 191 168 184 174 -3 3 -69 -43 -147 -102 -135 -102 -154 -114
-213 -139 -14 -5 -41 -17 -62 -26 -20 -9 -41 -16 -48 -16 -6 0 -8 -4 -5 -10
12 -19 49 -10 142 35 51 25 95 45 98 45 3 0 -19 -24 -47 -52 -29 -29 -126
-128 -215 -219 -90 -91 -163 -163 -163 -161 0 2 -8 -2 -17 -9 -17 -13 -17 -13
-3 6 8 11 20 25 26 30 22 20 124 152 124 161 0 5 -17 -9 -39 -31 -52 -54 -123
-116 -128 -111 -5 5 157 156 166 154 8 -2 102 94 119 121 22 37 3 23 -94 -69
-52 -50 -99 -88 -105 -84 -6 3 -28 -11 -50 -32 -57 -56 -58 -35 -1 33 59 70
138 142 171 154 42 17 8 32 -72 33 -47 1 -80 6 -90 15 -10 7 -28 11 -44 8 -55
-10 -222 133 -269 231 l-15 33 -57 -51 c-56 -50 -82 -62 -82 -37 0 15 62 75
103 101 23 14 26 21 20 44 -15 62 -6 167 22 249 33 99 61 134 245 302 74 68
207 194 295 280 89 86 244 235 345 331 261 249 420 407 420 420 0 5 -37 -25
-82 -68 -44 -42 -97 -92 -116 -110 -19 -18 -129 -121 -246 -229 -116 -108
-260 -244 -320 -302 -59 -58 -113 -110 -120 -116 -70 -61 -254 -232 -346 -321
-143 -139 -213 -199 -382 -325 -131 -97 -163 -112 -198 -89 -17 11 -20 8 55
55 137 86 374 287 635 539 63 61 149 142 190 181 41 38 113 105 161 150 197
185 329 307 414 380 50 43 134 118 187 167 54 49 132 120 174 156 43 37 80 74
82 82 5 14 -58 -38 -177 -146 -31 -28 -123 -109 -206 -179 -185 -158 -223
-193 -405 -369 -80 -78 -202 -192 -270 -255 -69 -63 -163 -151 -210 -195 -228
-216 -387 -347 -559 -460 -122 -80 -131 -84 -171 -79 l-43 6 28 14 c97 51 421
300 590 454 109 99 236 211 309 273 45 37 97 85 117 105 20 20 61 56 91 81 31
25 61 54 68 65 12 19 12 19 -6 4 -10 -8 -62 -51 -114 -94 -212 -176 -390 -328
-445 -380 -12 -11 -50 -45 -86 -75 -35 -30 -66 -57 -69 -60 -53 -53 -291 -233
-426 -320 l-99 -65 -170 -2 c-182 -2 -204 -5 -362 -58 -204 -68 -298 -130
-495 -323 -54 -52 -98 -90 -98 -84 0 31 205 240 295 302 122 83 258 143 555
247 116 40 238 107 445 245 225 149 452 315 654 477 206 166 417 330 498 387
293 207 881 666 1009 789 6 5 78 72 160 147 286 262 554 574 764 888 143 214
265 336 410 410 47 24 147 62 175 66 11 2 36 8 55 13 19 6 96 9 170 7 116 -2
146 -6 214 -30z m-5089 -258 c-4 -18 -18 -56 -31 -85 -66 -137 -278 -210 -402
-137 -25 15 -57 38 -69 50 -30 30 -30 54 0 27 47 -44 109 -67 177 -67 134 -1
223 54 280 172 37 76 56 93 45 40z m681 -12 c-8 -33 -60 -92 -106 -121 -49
-31 -131 -49 -187 -40 -92 14 -190 74 -224 138 -15 27 0 20 44 -19 61 -56 120
-78 202 -79 92 0 163 33 225 102 25 28 47 49 49 47 2 -2 1 -14 -3 -28z m338
-149 c117 -40 239 -10 312 77 47 56 61 59 35 8 -27 -53 -92 -109 -143 -122
-116 -32 -270 12 -329 93 -47 64 -34 73 24 14 35 -37 68 -59 101 -70z m-1704
23 c0 -67 -33 -151 -79 -198 -56 -57 -120 -85 -211 -90 -67 -4 -82 -1 -126 21
-27 14 -58 36 -69 49 -46 52 -49 61 -8 30 56 -44 103 -62 166 -64 162 -5 278
93 302 256 10 61 25 59 25 -4z m2225 -27 c21 -51 70 -100 129 -130 100 -51
233 -28 329 57 55 48 45 17 -15 -44 -61 -63 -109 -80 -203 -74 -71 4 -157 42
-205 91 -31 31 -69 99 -70 125 0 25 20 11 35 -25z m-2857 -248 c-4 -46 -13
-85 -28 -113 -47 -90 -167 -162 -268 -162 -71 1 -158 44 -184 94 -9 17 -8 17
20 -3 103 -73 239 -65 336 20 61 54 86 105 93 190 5 59 8 67 21 57 11 -10 13
-29 10 -83z m3506 -30 c31 -53 104 -105 160 -116 62 -11 152 7 202 41 54 38
61 38 34 1 -11 -17 -45 -41 -75 -55 -70 -34 -142 -34 -210 -2 -70 32 -166 140
-150 166 9 15 11 13 39 -35z m-4077 -245 c23 -78 -5 -175 -73 -250 -84 -93
-228 -129 -323 -80 -55 27 -59 41 -8 23 127 -45 314 45 363 174 13 33 15 61
11 114 -7 81 9 91 30 19z m4632 -69 c26 -47 97 -114 146 -137 34 -16 43 -24
28 -24 -80 0 -205 133 -202 216 l1 29 7 -30 c4 -16 13 -41 20 -54z m-3500 5
c-8 -8 -60 -15 -55 -8 2 4 17 9 32 10 15 1 25 0 23 -2z m3172 -158 c32 -17 59
-35 59 -40 0 -4 7 -8 15 -8 8 0 15 -5 15 -11 0 -7 -9 -5 -22 4 -13 9 -45 28
-73 43 -51 27 -75 44 -61 44 4 0 34 -14 67 -32z m574 -26 c-3 -3 -11 0 -18 7
-9 10 -8 11 6 5 10 -3 15 -9 12 -12z m-310 -130 c39 -24 72 -48 73 -53 2 -5 8
-9 13 -9 14 0 129 -82 129 -92 0 -13 -11 -9 -44 15 -27 21 -185 128 -242 164
-10 7 -36 22 -56 33 -21 11 -38 25 -38 31 0 12 51 -16 165 -89z m-5075 -55
c17 -39 21 -64 18 -111 -5 -74 -24 -115 -84 -183 -85 -99 -217 -137 -315 -94
-47 21 -96 64 -54 47 84 -34 171 -36 237 -7 98 42 174 140 185 238 4 42 -18
136 -38 158 -5 5 -9 16 -9 24 0 26 37 -17 60 -72z m2113 55 c26 -3 21 -16 -31
-95 -114 -171 -173 -304 -243 -552 -68 -237 -117 -317 -214 -344 -218 -60
-463 158 -482 429 -6 89 6 139 49 204 74 113 302 233 589 311 155 42 242 54
332 47z m5590 -50 c-17 -15 -46 -35 -65 -45 -32 -17 -32 -17 -9 0 14 10 41 30
60 45 47 35 55 35 14 0z m-103 -67 c0 -3 -26 -18 -59 -34 -32 -17 -122 -68
-200 -115 -77 -47 -141 -83 -141 -80 0 10 181 122 285 176 118 62 115 60 115
53z m80 -2 c0 -5 -21 -21 -48 -37 -26 -16 -69 -44 -97 -62 -27 -17 -99 -62
-160 -99 -128 -79 -293 -199 -420 -304 -49 -42 -92 -78 -95 -81 -3 -3 -30 -25
-60 -50 -172 -139 -315 -271 -690 -636 -85 -83 -207 -200 -270 -260 -327 -311
-1064 -1059 -1226 -1244 -212 -242 -305 -353 -364 -435 -53 -71 -63 -60 -19
21 46 85 219 291 492 589 176 191 654 675 962 974 422 409 487 473 596 576
186 178 393 370 435 404 16 13 45 39 65 58 31 29 46 37 79 42 3 1 11 11 19 24
13 21 12 21 -14 -3 -15 -14 -26 -20 -24 -15 5 14 94 95 103 95 4 0 -7 -12 -24
-26 -17 -15 -28 -29 -26 -32 3 -3 25 13 48 34 136 125 332 253 633 414 44 24
84 47 90 51 11 11 15 11 15 2z m-4532 -82 c238 -70 401 -210 508 -434 53 -112
74 -212 74 -352 0 -247 -78 -402 -244 -487 -69 -35 -245 -87 -371 -110 -92
-17 -161 -22 -295 -22 -168 -1 -177 0 -230 25 -152 72 -267 231 -335 464 -26
92 -27 93 -31 200 -12 333 204 649 496 724 105 27 323 23 428 -8z m-799 2
c-33 -41 -49 -60 -74 -88 l-26 -30 15 32 c9 17 33 48 53 67 41 39 54 46 32 19z
m4811 -188 c-13 -14 -26 -22 -29 -19 -3 3 5 14 18 25 33 27 39 24 11 -6z
m-5022 -137 c-27 -68 -55 -163 -78 -263 l-18 -80 5 70 c9 128 76 323 110 325
2 0 -7 -24 -19 -52z m4872 19 c0 -2 -10 -12 -22 -23 l-23 -19 19 23 c18 21 26
27 26 19z m-6344 -214 c110 -50 192 -182 201 -323 4 -51 10 -80 18 -80 6 0 51
14 101 30 49 17 96 29 104 28 8 -2 -14 -13 -50 -25 -36 -12 -90 -33 -121 -46
-51 -23 -57 -29 -69 -71 -7 -26 -11 -48 -9 -50 2 -2 69 18 149 45 147 50 278
85 286 76 2 -2 -24 -12 -58 -22 -70 -19 -253 -81 -339 -115 -48 -19 -59 -28
-78 -67 -12 -25 -20 -47 -19 -49 2 -2 62 16 133 40 147 49 195 62 180 48 -5
-5 -37 -17 -70 -27 -33 -9 -106 -35 -163 -58 -98 -38 -105 -43 -176 -121 -97
-106 -460 -466 -510 -505 -99 -78 -237 -110 -343 -80 -46 13 -133 79 -133 102
0 6 10 1 23 -10 65 -60 189 -80 292 -48 100 32 166 86 400 323 324 329 359
376 405 546 38 136 9 271 -78 367 -54 60 -125 109 -159 109 -13 0 -23 5 -23
10 0 14 43 3 106 -27z m3121 -55 c-3 -8 -6 -5 -6 6 -1 11 2 17 5 13 3 -3 4
-12 1 -19z m30 -175 c4 -82 3 -113 -5 -113 -8 0 -12 34 -12 113 0 61 -3 123
-5 137 l-6 25 11 -25 c6 -13 14 -75 17 -137z m-3275 65 c57 -24 117 -87 149
-154 31 -67 34 -221 5 -274 -41 -76 -119 -165 -341 -387 -250 -252 -276 -270
-385 -280 -152 -14 -271 85 -270 227 1 95 102 286 275 515 137 182 263 313
343 354 62 32 145 32 224 -1z m-972 18 c0 -18 -24 -60 -51 -91 -69 -78 -198
-112 -277 -71 -18 9 -32 18 -32 19 0 1 39 2 88 2 77 0 92 3 133 27 26 15 64
48 85 73 34 40 54 55 54 41z m2050 -336 c0 -5 -4 -10 -10 -10 -5 0 -10 5 -10
10 0 6 5 10 10 10 6 0 10 -4 10 -10z m-330 -52 c-14 -5 -33 -14 -44 -20 -13
-7 -17 -6 -14 3 4 13 38 27 68 27 8 1 4 -4 -10 -10z m220 -4 c0 -8 -91 -46
-97 -40 -6 5 47 30 95 45 1 1 2 -2 2 -5z m-2315 -248 c-52 -88 -133 -132 -230
-124 -79 7 -97 28 -23 28 100 0 184 45 244 131 38 56 45 27 9 -35z m2109 -142
c185 -48 356 -194 418 -357 58 -153 22 -296 -144 -573 -100 -166 -113 -186
-138 -219 -14 -18 -34 -46 -45 -61 -34 -47 -161 -198 -186 -220 -71 -64 -227
-67 -448 -8 -131 34 -222 84 -307 169 -215 214 -248 490 -88 738 169 261 436
477 659 533 71 18 206 17 279 -2z m2563 -296 c-11 -35 -25 -66 -31 -70 -7 -4
-57 -42 -112 -85 -166 -131 -190 -146 -218 -139 -14 3 -26 10 -26 14 0 5 21
24 48 42 26 19 49 36 52 40 3 3 23 18 45 35 33 24 139 117 239 207 11 10 21
18 21 18 1 0 -7 -28 -18 -62z m-873 -26 c3 -5 -36 -16 -87 -25 -138 -25 -145
-27 -170 -31 -38 -6 -125 -47 -139 -64 -11 -13 -10 -15 12 -9 14 3 45 9 70 12
43 5 42 4 -40 -36 -47 -22 -103 -49 -125 -60 -138 -64 -228 -127 -346 -243
-142 -139 -239 -293 -314 -501 -52 -145 -62 -192 -85 -395 -19 -164 -20 -227
-5 -310 2 -9 6 -42 10 -74 5 -40 10 -54 17 -45 6 10 7 7 3 -9 -4 -12 1 -42 11
-67 20 -53 12 -74 -9 -24 -38 92 -76 293 -71 377 1 26 5 97 8 158 16 289 123
569 313 812 36 46 63 85 60 88 -9 9 -141 -154 -189 -233 -93 -153 -172 -372
-197 -550 -5 -37 -9 -140 -9 -228 0 -188 18 -291 79 -465 44 -126 73 -182 160
-310 82 -120 145 -187 254 -270 100 -77 119 -96 59 -61 -69 41 -179 129 -228
183 -64 71 -158 214 -207 316 -38 79 -116 296 -125 350 -3 14 -7 28 -9 32 -10
16 -26 193 -26 284 1 439 253 933 594 1165 142 96 336 183 467 207 14 2 48 9
75 14 28 6 66 11 85 13 19 1 49 3 67 5 17 1 34 -1 37 -6z m846 -104 c0 -20 -9
-43 -23 -58 -26 -31 -174 -160 -182 -160 -3 0 -20 7 -37 16 -26 14 -29 18 -16
30 13 14 250 202 256 203 1 1 2 -14 2 -31z m-4901 -95 c-47 -79 -90 -108 -181
-118 -72 -9 -86 10 -18 24 82 18 113 35 165 93 54 60 70 60 34 1z m4849 -106
c-71 -64 -81 -69 -104 -52 -18 13 -15 18 51 77 38 35 76 71 85 81 14 17 15 15
18 -20 3 -35 -1 -42 -50 -86z m2926 68 c3 -8 1 -15 -4 -15 -6 0 -10 7 -10 15
0 8 2 15 4 15 2 0 6 -7 10 -15z m-3479 -16 c203 -27 428 -142 586 -299 160
-159 269 -377 299 -596 16 -117 7 -428 -13 -461 -3 -5 -8 -20 -11 -34 -8 -47
-49 -145 -89 -214 -51 -90 -101 -152 -196 -244 -171 -166 -356 -265 -581 -311
-100 -21 -217 -23 -341 -6 -101 14 -334 97 -419 149 -129 78 -260 198 -327
298 -55 80 -119 224 -143 319 -56 220 -29 524 66 735 38 86 46 115 29 115 -16
0 -86 -117 -115 -195 -72 -194 -79 -540 -14 -732 32 -99 107 -247 157 -313 23
-30 83 -97 135 -148 97 -98 99 -102 17 -42 -131 97 -258 276 -325 458 -101
277 -81 683 45 884 18 29 45 71 58 93 14 22 48 66 76 98 28 32 48 63 45 69 -4
6 -2 8 4 5 5 -4 26 8 44 25 92 87 129 118 198 165 176 118 347 175 575 192
109 8 110 8 240 -10z m3485 -29 c0 -11 -2 -20 -4 -20 -2 0 -6 9 -9 20 -3 11
-1 20 4 20 5 0 9 -9 9 -20z m-2823 -86 c3 -9 -7 -28 -28 -50 -36 -37 -56 -43
-66 -17 -5 11 5 27 32 50 43 37 53 40 62 17z m2841 -89 c0 -22 -3 -19 -9 15
-10 60 -9 108 2 55 4 -22 8 -53 7 -70z m51 26 c1 -35 -5 -22 -12 24 -5 28 -4
34 3 20 5 -11 9 -31 9 -44z m-2861 -39 c-10 -16 -27 -28 -43 -30 -24 -3 -26
-1 -20 20 4 13 19 36 33 51 26 28 27 28 36 7 7 -16 5 -29 -6 -48z m57 -2 c8
-13 -35 -69 -53 -69 -16 -1 -7 36 16 62 17 19 28 22 37 7z m2823 -70 c1 -23 0
-23 -8 -5 -5 11 -8 36 -8 55 l0 35 8 -30 c4 -16 8 -41 8 -55z m-2785 26 c7
-17 -48 -72 -57 -57 -7 11 32 71 45 71 4 0 9 -6 12 -14z m47 -32 c0 -3 -9 -17
-19 -30 -21 -27 -35 -13 -19 19 8 16 38 25 38 11z m54 -29 c19 -15 19 -16 -9
-45 l-28 -30 -12 23 c-8 15 -8 29 -2 45 12 25 24 27 51 7z m-4804 -71 c-16
-95 -18 -109 -25 -194 -7 -84 -11 -123 -25 -225 -14 -101 -17 -284 -5 -287 6
-2 13 33 17 82 9 111 26 254 43 360 8 47 16 101 19 120 9 72 31 154 43 157 15
5 19 -36 11 -122 -33 -359 -35 -850 -5 -1030 9 -49 18 -108 21 -130 7 -50 22
-114 53 -230 l23 -90 -25 -22 c-15 -13 -30 -23 -35 -23 -13 0 -56 144 -80 267
-11 59 -24 119 -27 133 -6 23 -9 48 -12 93 -1 9 -6 17 -12 17 -25 0 21 -316
61 -420 13 -35 21 -100 12 -100 -4 0 -13 15 -21 33 -7 17 -19 46 -26 62 -8 17
-19 62 -25 100 -11 67 -16 83 -24 74 -4 -4 16 -149 29 -204 5 -23 4 -26 -4
-14 -11 18 -43 155 -61 267 -6 39 -16 69 -21 66 -5 -3 -7 -9 -5 -13 3 -4 8
-50 11 -102 4 -52 11 -112 16 -134 11 -52 11 -61 0 -49 -10 9 -34 119 -46 204
-12 81 -34 193 -41 199 -4 3 -4 -34 0 -84 3 -49 9 -121 11 -160 l5 -70 -14 60
c-7 33 -19 85 -26 115 -6 30 -13 62 -15 70 -2 8 -4 26 -4 39 -1 24 -1 24 -16
5 -11 -15 -15 -16 -15 -4 -1 8 -3 31 -5 50 -30 286 -29 543 1 721 7 47 16 98
18 115 12 93 39 230 48 239 6 7 8 1 4 -15 -5 -23 -26 -152 -41 -260 -12 -85
-17 -290 -7 -290 6 0 12 26 15 58 9 112 72 489 83 501 8 8 4 -46 -11 -144 -9
-55 -17 -140 -19 -190 -5 -103 -3 -95 43 148 28 153 50 225 37 121 -3 -27 -9
-77 -12 -110 -3 -32 -9 -90 -13 -127 -4 -37 -4 -70 1 -73 7 -4 13 35 9 59 0 4
3 7 9 7 10 0 11 6 34 175 9 61 17 119 20 130 2 11 7 45 11 75 7 56 13 75 21
67 3 -2 0 -35 -6 -73z m4959 27 l53 -6 -78 -65 c-110 -91 -114 -93 -120 -88
-2 3 7 20 22 38 19 22 24 34 16 39 -9 5 -4 15 13 31 14 13 25 28 25 33 0 10
-45 -17 -69 -40 -14 -15 -33 -13 -38 4 -2 6 8 25 23 42 23 28 30 31 63 25 20
-4 60 -10 90 -13z m-5062 -13 c-3 -8 -6 -5 -6 6 -1 11 2 17 5 13 3 -3 4 -12 1
-19z m43 -58 c0 -16 -4 -30 -9 -30 -5 0 -8 8 -6 18 2 9 4 23 4 30 2 26 11 11
11 -18z m555 -1 c105 -39 188 -109 320 -273 63 -78 211 -203 310 -262 49 -29
137 -72 195 -95 116 -47 116 -47 108 -55 -11 -10 -163 48 -268 102 -139 72
-226 138 -335 252 -215 227 -249 258 -315 290 -40 20 -88 34 -125 38 -79 8
-96 14 -70 24 28 12 121 1 180 -21z m455 -106 c56 -110 154 -215 257 -278 134
-82 330 -135 495 -135 61 0 69 -5 41 -26 -57 -43 -375 24 -518 110 -132 78
-248 198 -296 304 -20 42 -36 112 -27 112 2 0 24 -39 48 -87z m-523 -54 c33
-14 70 -45 123 -102 149 -162 286 -295 360 -349 80 -58 224 -145 278 -167 17
-7 32 -17 32 -21 0 -4 -39 -25 -87 -46 -142 -62 -342 -166 -435 -228 -103 -67
-211 -159 -366 -311 -63 -60 -117 -109 -120 -108 -8 2 -28 64 -42 128 -24 112
-41 205 -46 245 -2 25 -9 79 -15 120 -13 103 -9 557 6 645 20 114 60 174 136
204 42 17 125 12 176 -10z m483 -71 c0 -10 124 -130 186 -179 21 -16 64 -46
97 -66 32 -19 56 -37 53 -40 -9 -9 -111 44 -173 91 -53 40 -193 192 -193 210
0 3 7 3 15 0 8 -4 15 -10 15 -16z m1644 -788 c26 -85 76 -198 124 -278 24 -40
41 -76 38 -79 -3 -4 -6 -2 -6 3 0 5 -11 22 -25 39 -65 74 -156 288 -154 359 0
17 2 27 4 21 2 -5 10 -35 19 -65z m-3134 6 c0 -3 -15 -17 -34 -31 -34 -26 -82
-42 -71 -24 4 5 11 9 16 9 6 0 27 11 47 25 38 26 42 28 42 21z m6232 -32 c151
-39 269 -127 328 -247 42 -85 52 -213 25 -315 -44 -167 -194 -371 -318 -431
-167 -81 -343 -63 -524 52 -42 27 -106 104 -136 163 -23 44 -46 151 -41 188
11 80 27 133 61 209 107 237 209 345 358 381 81 19 170 19 247 0z m1240 -81
c129 -51 209 -203 195 -369 -18 -207 -173 -653 -338 -974 -157 -304 -247 -383
-440 -384 -68 -1 -83 3 -145 34 -124 63 -193 196 -181 349 3 42 11 92 18 111
6 19 73 161 149 315 76 154 170 361 210 460 39 99 86 209 103 245 33 70 99
147 154 181 79 49 198 63 275 32z m-1861 -60 c-12 -20 -14 -14 -5 12 4 9 9 14
11 11 3 -2 0 -13 -6 -23z m-5254 -15 c-3 -7 -5 -2 -5 12 0 14 2 19 5 13 2 -7
2 -19 0 -25z m5210 -99 c-89 -214 -111 -321 -87 -420 17 -69 69 -168 123 -232
40 -49 191 -157 219 -157 7 0 20 -5 28 -10 34 -23 -39 -1 -100 30 -121 61
-232 193 -271 322 -39 128 -15 281 71 456 15 31 31 67 35 80 4 13 9 21 12 19
2 -3 -11 -43 -30 -88z m-2453 -9 c3 -14 -3 -7 -13 15 -11 22 -19 47 -19 55 0
17 22 -32 32 -70z m-1259 -40 c-201 -50 -333 -124 -480 -268 -33 -32 -68 -71
-78 -86 -11 -15 -21 -25 -24 -22 -3 3 14 29 38 58 81 97 176 183 253 227 92
52 265 110 331 109 19 0 4 -7 -40 -18z m283 13 c-10 -2 -28 -2 -40 0 -13 2 -5
4 17 4 22 1 32 -1 23 -4z m123 -32 c131 -47 260 -138 321 -226 13 -18 2 -11
-29 20 -100 101 -193 161 -307 200 -39 14 -64 25 -55 25 9 0 40 -9 70 -19z
m899 -36 c14 -19 14 -19 -2 -6 -10 7 -18 18 -18 24 0 6 1 8 3 6 1 -2 9 -13 17
-24z m-982 -27 c296 -76 513 -342 512 -627 -1 -214 -103 -427 -305 -639 -145
-153 -315 -248 -494 -278 -194 -31 -288 -6 -409 110 -123 117 -213 259 -268
421 -37 110 -44 314 -15 418 57 198 226 401 434 521 151 87 378 118 545 74z
m5639 -90 c39 -49 16 -197 -74 -488 -66 -215 -171 -460 -274 -643 -123 -217
-354 -523 -505 -667 -66 -64 -62 -52 16 45 87 108 191 258 270 388 77 127 246
460 275 542 10 28 22 55 26 60 15 21 122 323 154 436 19 66 42 163 51 217 15
91 26 122 44 122 4 0 12 -6 17 -12z m-4512 -49 c28 -29 39 -44 25 -34 -24 18
-86 85 -78 85 2 0 26 -23 53 -51z m-2725 -14 c0 -8 -2 -15 -4 -15 -2 0 -6 7
-10 15 -3 8 -1 15 4 15 6 0 10 -7 10 -15z m2935 -89 c6 -4 1 -4 -10 2 -11 6
-29 21 -40 34 -19 22 -19 22 10 -2 17 -14 35 -29 40 -34z m-884 22 c10 -13 18
-28 19 -35 0 -6 6 -14 13 -16 6 -3 7 -6 1 -6 -6 -1 -22 17 -37 39 -28 44 -26
53 4 18z m-2521 -88 c-19 -27 -95 -80 -115 -80 -4 0 24 29 61 64 70 64 94 72
54 16z m2591 -33 c36 -70 49 -104 48 -125 0 -12 -4 -9 -11 8 -7 14 -26 58 -44
98 -38 83 -32 98 7 19z m-1880 -44 c-8 -15 -10 -15 -11 -2 0 17 10 32 18 25 2
-3 -1 -13 -7 -23z m2926 -7 c27 -14 61 -30 77 -36 16 -6 26 -13 24 -16 -6 -5
-158 64 -158 72 0 7 7 5 57 -20z m-132 -94 c-3 -3 -11 0 -18 7 -9 10 -8 11 6
5 10 -3 15 -9 12 -12z m-852 -59 c19 -174 -39 -396 -151 -583 -57 -94 -138
-196 -194 -244 -66 -57 -58 -21 12 54 34 36 89 105 122 154 142 213 205 400
196 585 -5 101 6 124 15 34z m1247 47 c0 -5 -2 -10 -4 -10 -3 0 -8 5 -11 10
-3 6 -1 10 4 10 6 0 11 -4 11 -10z m477 -26 c-3 -3 -12 -4 -19 -1 -8 3 -5 6 6
6 11 1 17 -2 13 -5z m-872 -144 c3 -6 -1 -7 -9 -4 -18 7 -21 14 -7 14 6 0 13
-4 16 -10z m1108 3 c-7 -2 -21 -2 -30 0 -10 3 -4 5 12 5 17 0 24 -2 18 -5z
m230 -18 c234 -68 419 -292 488 -590 113 -487 -144 -1013 -608 -1244 -45 -23
-90 -41 -100 -41 -10 0 5 11 32 24 147 69 343 230 446 365 92 121 191 352 213
496 27 177 16 313 -40 484 -69 213 -198 372 -366 456 -70 35 -110 48 -156 52
-35 3 -65 10 -68 15 -7 11 99 0 159 -17z m-858 -13 c-3 -3 -11 0 -18 7 -9 10
-8 11 6 5 10 -3 15 -9 12 -12z m473 11 c-10 -2 -26 -2 -35 0 -10 3 -2 5 17 5
19 0 27 -2 18 -5z m-438 -13 c0 -5 -2 -10 -4 -10 -3 0 -8 5 -11 10 -3 6 -1 10
4 10 6 0 11 -4 11 -10z m90 0 c0 -5 -18 -10 -41 -10 -24 0 -38 4 -34 10 3 6
22 10 41 10 19 0 34 -4 34 -10z m37 4 c-3 -3 -12 -4 -19 -1 -8 3 -5 6 6 6 11
1 17 -2 13 -5z m86 -1 c-7 -2 -21 -2 -30 0 -10 3 -4 5 12 5 17 0 24 -2 18 -5z
m60 0 c-7 -2 -21 -2 -30 0 -10 3 -4 5 12 5 17 0 24 -2 18 -5z m74 1 c-3 -3
-12 -4 -19 -1 -8 3 -5 6 6 6 11 1 17 -2 13 -5z m296 -140 c130 -33 220 -99
309 -224 104 -148 145 -267 147 -436 3 -152 -16 -234 -84 -370 -100 -201 -277
-360 -487 -438 -133 -49 -194 -58 -449 -63 -157 -3 -271 -1 -315 6 -38 6 -85
14 -104 17 -19 3 -92 21 -161 39 -379 102 -520 212 -560 437 -44 247 129 571
413 771 99 71 298 159 411 182 10 2 27 7 37 10 22 7 38 10 103 19 27 4 59 9
70 12 53 10 251 35 342 43 162 14 262 12 328 -5z m409 -234 c68 -94 121 -237
137 -375 21 -177 -35 -393 -151 -577 -143 -226 -473 -411 -758 -425 -135 -6
-194 11 -75 22 44 4 89 9 100 10 11 2 36 6 55 9 184 28 393 136 542 279 205
197 302 511 244 785 -18 81 -66 204 -100 254 -23 34 -44 81 -29 63 5 -5 21
-26 35 -45z m877 2 c200 -77 340 -267 367 -493 18 -154 -71 -380 -202 -515
-96 -98 -290 -227 -505 -335 -118 -59 -150 -80 -129 -87 5 -2 66 21 135 52
139 61 360 188 471 272 81 61 224 197 224 213 0 6 9 15 20 21 34 18 23 -3 -44
-87 -164 -203 -386 -368 -694 -515 -244 -116 -449 -177 -649 -194 -62 -5 -73
-3 -73 9 0 21 14 28 63 33 99 9 239 41 300 69 l32 15 -45 -6 c-25 -3 -70 -12
-100 -19 -69 -17 -190 -28 -190 -17 0 19 106 51 147 44 6 -2 14 2 18 8 3 5 16
10 29 10 30 0 245 68 271 86 26 18 8 18 -46 -1 -83 -30 -319 -77 -319 -64 0
18 55 48 98 54 162 22 567 200 802 352 109 71 246 209 283 284 47 97 70 211
64 309 -6 102 -33 180 -93 270 -52 79 -81 108 -159 155 -96 58 -178 78 -295
73 -55 -2 -96 -1 -92 3 35 34 224 34 311 1z m-5231 -197 c-3 -3 -9 2 -12 12
-6 14 -5 15 5 6 7 -7 10 -15 7 -18z m5149 -7 c65 -24 141 -91 171 -151 36 -71
42 -125 21 -191 -39 -128 -167 -245 -429 -392 -91 -52 -260 -134 -274 -134 -5
0 5 27 39 105 61 143 93 312 96 501 1 102 5 136 19 164 58 112 208 154 357 98z
m-3701 -202 c-31 -26 -103 -66 -117 -66 -23 0 -4 17 39 34 26 11 56 28 66 38
11 10 25 18 30 18 6 -1 -2 -11 -18 -24z m4244 4 c0 -5 -4 -10 -10 -10 -5 0
-10 5 -10 10 0 6 5 10 10 10 6 0 10 -4 10 -10z m-5095 -90 c12 -19 -12 -10
-31 11 -19 22 -19 22 3 10 12 -6 25 -16 28 -21z m-330 -105 c33 -38 82 -95
110 -125 97 -107 156 -194 74 -110 -103 106 -269 307 -269 324 0 12 5 7 85
-89z m5411 68 c-10 -10 -19 5 -10 18 6 11 8 11 12 0 2 -7 1 -15 -2 -18z
m-4556 -23 c-8 -5 -33 -9 -55 -8 l-40 1 45 7 c25 4 50 8 55 8 6 1 3 -3 -5 -8z
m-117 -7 c-7 -2 -21 -2 -30 0 -10 3 -4 5 12 5 17 0 24 -2 18 -5z m4351 -160
c-56 -120 -244 -277 -464 -388 -151 -76 -358 -161 -368 -150 -3 2 13 31 34 63
34 53 44 61 91 76 79 25 344 162 447 230 95 63 229 189 262 244 19 33 19 33
22 8 2 -13 -9 -51 -24 -83z m316 86 c0 -6 -8 -18 -17 -27 -16 -16 -16 -16 -10
1 4 10 7 23 7 28 0 5 5 9 10 9 6 0 10 -5 10 -11z m-3603 -61 c6 -61 33 -165
55 -217 10 -24 17 -45 15 -47 -7 -8 -47 85 -61 141 -16 69 -30 182 -20 172 4
-3 9 -26 11 -49z m-1454 -213 c137 -165 153 -183 235 -267 82 -84 47 -71 -47
18 -89 83 -164 171 -291 339 -116 153 -53 98 103 -90z m5157 165 c0 -5 -5 -10
-11 -10 -5 0 -7 5 -4 10 3 6 8 10 11 10 2 0 4 -4 4 -10z m-350 -48 c0 -16 -54
-89 -110 -149 -46 -49 -164 -141 -245 -190 -64 -39 -188 -106 -240 -128 -33
-15 -85 -38 -115 -52 -91 -41 -181 -73 -247 -87 l-62 -12 19 25 c34 48 60 64
157 96 54 17 118 41 143 52 25 11 74 33 110 49 181 79 382 210 495 322 79 78
95 90 95 74z m266 -29 c-10 -10 -19 5 -10 18 6 11 8 11 12 0 2 -7 1 -15 -2
-18z m-4971 -12 c31 -14 68 -44 99 -80 113 -131 363 -374 526 -511 97 -81 182
-153 190 -161 8 -8 32 -27 53 -43 21 -15 36 -30 33 -33 -7 -7 -228 152 -356
256 -58 47 -179 157 -268 245 -165 162 -356 363 -337 355 6 -2 33 -15 60 -28z
m176 -47 c9 -2 49 -44 90 -92 120 -141 175 -197 349 -347 91 -79 199 -175 240
-215 65 -62 69 -68 35 -49 -59 33 -367 281 -459 369 -43 41 -137 137 -209 214
-140 147 -139 146 -46 120z m4798 -101 c-18 -21 -85 -90 -146 -153 -62 -63
-108 -116 -104 -118 17 -6 95 40 202 119 58 43 112 86 119 94 7 9 21 20 31 26
39 21 6 -20 -82 -100 -85 -79 -107 -111 -74 -111 28 0 15 -15 -63 -71 -298
-218 -768 -443 -1067 -510 -139 -32 -275 -11 -330 50 -16 19 -17 24 -5 31 8 6
38 10 65 10 222 1 687 180 989 382 176 118 476 356 476 379 0 5 5 9 12 9 7 0
-4 -17 -23 -37z m-1553 -268 c-27 -24 -94 -66 -150 -94 -109 -54 -156 -70
-156 -52 0 6 6 11 14 11 21 0 224 104 281 144 67 47 70 44 11 -9z m-1136 -900
c36 -4 73 -9 84 -11 10 -2 36 -4 57 -6 21 -1 36 -5 33 -9 -3 -5 -10 -6 -17 -4
-7 2 -46 6 -87 9 -41 3 -84 8 -95 10 -11 3 -28 5 -37 5 -10 1 -18 6 -18 12 0
5 3 8 8 6 4 -3 36 -8 72 -12z m227 -31 c-3 -3 -12 -4 -19 -1 -8 3 -5 6 6 6 11
1 17 -2 13 -5z"/>
<path d="M8869 9616 c-68 -15 -206 -72 -197 -82 4 -3 14 -1 25 4 34 19 110 42
193 59 14 3 70 6 125 6 174 1 326 -61 462 -188 43 -40 79 -72 81 -70 9 8 -23
47 -87 108 -76 71 -172 124 -276 152 -83 23 -244 28 -326 11z"/>
<path d="M8917 9549 c-200 -26 -382 -156 -466 -333 -93 -193 -66 -433 69 -632
55 -80 199 -204 237 -204 7 0 13 -4 13 -8 0 -9 92 -42 117 -42 9 0 11 -5 6
-14 -11 -20 -152 -174 -265 -291 -105 -109 -158 -172 -158 -188 0 -15 35 17
247 232 106 107 198 207 205 223 11 25 17 29 42 24 16 -3 37 -6 47 -6 19 0
-55 -76 -360 -370 -160 -153 -188 -186 -151 -172 16 6 79 65 429 397 47 44 95
92 109 108 13 15 30 27 38 27 8 0 23 5 34 12 10 7 23 9 27 4 4 -4 -23 -36 -61
-69 -125 -111 -211 -196 -199 -197 10 0 124 88 143 110 3 3 28 24 55 45 28 22
53 45 57 50 35 53 56 75 73 75 11 0 38 9 60 19 22 10 45 19 50 20 6 1 20 9 33
17 12 8 22 11 22 7 0 -4 7 3 16 15 8 12 20 19 26 16 6 -4 8 -2 5 3 -9 14 19
37 34 27 7 -4 9 -3 6 3 -8 13 17 36 28 25 5 -4 5 -1 1 6 -9 16 12 44 27 35 5
-3 7 -1 4 4 -4 6 1 17 10 24 14 12 16 12 8 -1 -8 -13 -7 -13 8 -1 18 15 23 26
7 16 -16 -10 -11 8 10 35 13 15 18 18 14 7 -5 -13 -2 -16 12 -10 15 6 14 1 -6
-28 -22 -31 -22 -32 -2 -15 34 30 99 166 118 246 26 115 16 253 -25 352 -18
42 -39 82 -48 89 -12 11 -12 7 2 -26 36 -83 64 -223 61 -303 -4 -96 -15 -160
-29 -169 -7 -4 -8 1 -3 13 6 15 5 16 -5 7 -10 -10 -9 -15 0 -27 11 -13 8 -19
-12 -38 -20 -19 -23 -28 -15 -43 9 -19 9 -19 -7 0 -16 19 -16 19 -12 -12 5
-34 -6 -45 -17 -18 -6 17 13 65 26 65 5 0 7 4 3 10 -3 5 2 26 12 47 35 77 23
297 -22 408 -33 81 -45 101 -99 167 -61 74 -134 133 -212 172 -95 48 -253 71
-377 55z m248 -103 c87 -31 131 -54 155 -80 14 -15 34 -31 45 -37 14 -7 13 -4
-5 11 -28 24 -10 17 33 -13 15 -10 26 -24 24 -30 -2 -7 16 -39 40 -72 24 -33
47 -72 50 -87 3 -16 10 -28 15 -28 5 0 7 -4 4 -9 -3 -4 1 -17 10 -27 14 -18
15 -18 5 3 -8 15 -8 24 -1 28 6 3 12 0 15 -7 2 -7 9 -26 16 -43 10 -29 13 -39
24 -102 6 -36 -11 -149 -31 -210 -74 -220 -293 -373 -534 -373 -131 0 -332 89
-417 185 -97 110 -153 246 -153 375 0 62 4 82 20 103 11 14 20 32 20 40 0 33
84 180 130 227 49 51 192 130 234 130 10 0 16 3 12 8 -4 4 9 13 31 19 48 16
203 9 258 -11z"/>
<path d="M8873 9415 c-240 -78 -383 -292 -345 -518 44 -258 285 -460 531 -445
274 18 478 254 457 530 -6 81 -25 134 -82 223 -52 82 -157 169 -236 196 -20 7
-35 15 -33 18 8 13 -251 10 -292 -4z m226 -71 c10 -9 -55 -3 -69 6 -10 6 -2 7
25 3 22 -3 42 -7 44 -9z m114 -40 c34 -18 101 -67 129 -95 34 -34 99 -144 88
-147 -7 -3 -4 -12 7 -24 14 -16 18 -37 18 -107 0 -148 -57 -256 -181 -340 -33
-23 -82 -48 -109 -56 -55 -17 -165 -20 -165 -5 0 6 28 10 64 10 49 0 69 5 87
20 l24 19 -31 1 c-17 0 -34 -3 -38 -7 -11 -12 -50 -11 -81 3 -29 12 -29 13 22
12 107 -2 236 91 291 210 36 79 38 214 5 282 -32 63 -115 144 -181 177 -50 25
-68 28 -152 28 -87 0 -101 -3 -160 -32 -127 -62 -185 -147 -196 -286 -6 -72
-9 -77 -30 -77 -12 0 -26 5 -30 12 -5 7 -2 8 7 3 11 -6 12 -5 2 6 -7 7 -12 31
-12 54 2 29 3 33 6 13 5 -33 23 -37 23 -5 0 12 7 42 15 65 58 166 179 262 354
281 46 5 97 8 113 6 15 -2 28 0 28 5 0 10 30 1 83 -26z m-361 -134 c-34 -22
-66 -40 -69 -40 -14 0 34 43 67 61 64 34 66 19 2 -21z m363 -29 c-2 -5 4 -11
14 -14 21 -5 65 -67 76 -107 5 -19 0 -15 -20 15 -15 22 -41 55 -58 73 -17 17
-27 32 -22 32 5 0 0 7 -11 16 -18 14 -18 15 4 4 12 -6 20 -15 17 -19z m-295 9
c0 -5 -8 -10 -17 -10 -10 0 -48 -15 -84 -33 -52 -26 -64 -29 -56 -15 7 10 25
23 42 29 16 6 46 17 65 25 43 16 50 17 50 4z m0 -44 c0 -2 -7 -7 -16 -10 -8
-3 -12 -2 -9 4 6 10 25 14 25 6z m-45 -16 c-3 -5 -16 -10 -28 -9 -21 0 -21 1
-2 9 28 12 37 12 30 0z m365 -44 c8 -11 23 -33 33 -50 15 -24 9 -21 -23 14
-22 25 -46 54 -52 65 -11 19 -10 19 8 5 10 -8 26 -24 34 -34z m-420 24 c0 -5
-6 -10 -14 -10 -8 0 -28 -12 -45 -26 -17 -14 -29 -20 -26 -12 6 14 64 58 77
58 5 0 8 -4 8 -10z m437 -116 c-2 -3 -21 17 -42 43 l-38 48 42 -44 c23 -24 40
-45 38 -47z m-199 40 c73 -21 149 -95 175 -171 18 -52 18 -53 -1 -80 -11 -15
-46 -44 -78 -63 -56 -33 -62 -35 -154 -35 -88 0 -99 2 -150 31 -68 39 -107 86
-124 151 -22 84 9 131 111 163 73 24 149 25 221 4z"/>
<path d="M9396 9091 c-3 -5 1 -11 9 -15 8 -3 15 -1 15 4 0 13 -18 22 -24 11z"/>
<path d="M9380 9312 c0 -5 7 -13 16 -16 10 -4 14 -1 12 6 -5 15 -28 23 -28 10z"/>
<path d="M8291 9104 c-34 -37 -61 -72 -61 -78 1 -10 12 1 78 79 14 17 32 38
40 48 8 9 13 17 9 17 -3 0 -33 -30 -66 -66z"/>
<path d="M8300 9041 c-8 -10 -105 -112 -216 -227 -281 -293 -376 -396 -369
-403 13 -12 615 619 615 645 0 10 -16 2 -30 -15z"/>
<path d="M8020 8645 c-168 -168 -421 -420 -562 -559 -233 -229 -276 -276 -250
-276 10 0 1001 985 1060 1053 38 44 68 87 60 87 -2 0 -141 -137 -308 -305z"/>
<path d="M8289 8813 c-19 -16 -46 -40 -61 -55 -15 -16 -32 -28 -38 -28 -5 0
-10 -7 -10 -15 0 -28 22 -15 88 49 68 66 82 98 21 49z"/>
<path d="M8306 8751 c-10 -10 -13 -22 -8 -25 12 -7 54 23 47 35 -9 14 -20 11
-39 -10z"/>
<path d="M9625 8710 c-3 -5 -1 -10 4 -10 6 0 11 5 11 10 0 6 -2 10 -4 10 -3 0
-8 -4 -11 -10z"/>
<path d="M8211 8674 c-98 -35 -113 -48 -476 -398 -212 -204 -415 -400 -505
-486 -3 -3 -36 -32 -75 -65 -38 -32 -115 -100 -170 -150 -55 -50 -140 -126
-190 -169 -109 -96 -346 -318 -635 -596 -118 -114 -230 -220 -249 -236 -59
-49 -160 -175 -187 -232 -40 -85 -33 -215 17 -314 42 -82 134 -158 228 -188
62 -20 174 -16 241 7 47 17 195 103 210 122 3 4 25 22 50 41 40 30 318 259
346 285 6 6 105 101 220 211 245 236 434 409 594 543 63 52 212 190 330 306
118 116 244 238 280 271 163 152 184 173 180 178 -7 6 -269 -231 -430 -389
-69 -67 -228 -214 -355 -327 -315 -281 -321 -286 -400 -350 -38 -32 -83 -69
-100 -83 -16 -15 -56 -48 -88 -73 -95 -76 -279 -230 -321 -270 -21 -20 -37
-30 -34 -22 2 8 98 98 214 198 336 295 394 348 576 521 95 91 211 201 258 245
47 43 119 111 160 150 184 174 284 269 403 381 71 66 133 128 139 139 17 31
-9 11 -137 -105 -27 -25 -68 -61 -90 -81 -103 -91 -182 -163 -325 -298 -190
-180 -651 -603 -745 -685 -88 -77 -237 -211 -389 -350 -66 -60 -149 -137 -185
-169 -36 -33 -102 -92 -146 -132 -114 -102 -167 -145 -173 -139 -3 2 26 33 64
67 38 35 103 94 144 133 239 222 335 310 425 390 160 142 497 461 965 913 125
121 404 387 475 452 78 73 91 86 128 130 40 48 6 25 -99 -66 -60 -52 -149
-129 -199 -170 -49 -42 -164 -147 -254 -233 -167 -158 -241 -226 -341 -317
-30 -27 -79 -72 -110 -100 -30 -28 -75 -68 -100 -90 -86 -76 -195 -179 -208
-196 -7 -10 -23 -23 -35 -29 -26 -14 92 110 208 219 44 42 85 80 90 87 6 6 57
55 115 110 58 55 222 212 365 350 143 138 291 280 330 315 148 137 219 209
213 216 -4 3 -42 -22 -84 -57 -115 -95 -184 -150 -184 -145 0 2 -19 -15 -43
-38 -24 -22 -72 -66 -107 -96 -35 -30 -116 -105 -179 -165 -124 -119 -420
-396 -486 -454 -38 -35 -38 -35 6 14 42 46 345 346 449 444 25 24 95 91 155
150 61 59 170 160 242 225 148 131 201 191 179 199 -17 7 -109 -66 -264 -208
-263 -241 -486 -443 -536 -484 -46 -37 61 68 169 168 39 36 153 144 255 241
196 187 271 255 335 307 l40 31 -30 32 c-16 18 -49 43 -72 57 -24 14 -43 27
-43 29 0 3 3 2 75 -30 22 -10 62 -36 88 -58 26 -22 51 -38 54 -35 10 11 -64
93 -113 126 -26 17 -42 31 -36 31 23 0 115 -62 213 -145 96 -81 119 -96 119
-77 0 12 -104 118 -187 191 -40 35 -73 66 -73 70 0 4 14 5 32 3 l31 -5 -20 29
c-11 16 -23 36 -28 44 -12 25 58 -53 88 -96 15 -23 61 -72 102 -110 41 -37 75
-76 75 -86 0 -29 19 -30 51 -3 48 40 46 22 -6 -45 -26 -34 -44 -64 -41 -68 4
-3 45 33 92 82 48 48 82 91 78 96 -5 4 -38 20 -74 35 -65 28 -150 85 -191 128
-12 12 -48 56 -81 97 -91 115 -159 141 -267 104z m29 -348 c0 -8 -4 -18 -10
-21 -5 -3 -10 3 -10 14 0 12 5 21 10 21 6 0 10 -6 10 -14z m83 -30 c4 -9 1
-13 -7 -10 -16 6 -62 -31 -201 -159 -192 -178 -215 -195 -50 -36 88 85 174
168 190 186 32 34 59 42 68 19z m-1677 -1224 c-17 -16 -18 -16 -5 5 7 12 15
20 18 17 3 -2 -3 -12 -13 -22z m-131 -132 c-27 -27 -51 -47 -54 -44 -5 5 88
94 98 94 3 0 -17 -22 -44 -50z m-95 -95 c-13 -14 -27 -25 -32 -25 -5 0 3 11
18 25 15 14 29 25 32 25 3 0 -5 -11 -18 -25z m660 -18 c0 -2 -15 -16 -32 -33
l-33 -29 29 33 c28 30 36 37 36 29z m-742 -57 c-16 -16 -32 -30 -36 -30 -3 0
7 14 23 30 16 17 32 30 36 30 4 0 -6 -13 -23 -30z m-129 -134 c-41 -40 -76
-72 -78 -70 -5 5 133 144 143 144 5 0 -25 -33 -65 -74z m-129 -121 c0 -3 -16
-21 -35 -41 -19 -19 -35 -32 -35 -28 0 6 62 74 68 74 1 0 2 -2 2 -5z m-243
-317 c-3 -8 -6 -5 -6 6 -1 11 2 17 5 13 3 -3 4 -12 1 -19z m0 -50 c-3 -7 -5
-2 -5 12 0 14 2 19 5 13 2 -7 2 -19 0 -25z m89 -158 c24 -19 63 -43 86 -52 24
-9 35 -17 25 -17 -59 -2 -190 108 -186 156 0 4 7 -5 16 -22 8 -16 34 -46 59
-65z m264 -66 c0 -2 -7 -4 -15 -4 -8 0 -15 4 -15 10 0 5 7 7 15 4 8 -4 15 -8
15 -10z"/>
<path d="M9495 8470 c-33 -33 -63 -60 -67 -60 -9 0 -108 -70 -108 -76 0 -9 82
40 87 52 3 8 9 14 15 14 15 0 86 61 114 97 14 18 24 33 22 33 -2 0 -30 -27
-63 -60z"/>
<path d="M9280 8324 c-14 -8 -35 -13 -47 -11 -14 3 -20 0 -16 -9 2 -7 12 -10
21 -7 48 15 72 26 72 34 0 10 2 11 -30 -7z"/>
<path d="M9164 8274 c-19 -15 -19 -15 1 -6 11 5 27 12 35 15 13 5 13 6 -1 6
-8 1 -24 -6 -35 -15z"/>
<path d="M7890 7213 c-100 -101 -120 -124 -65 -76 103 92 232 223 220 223 -6
0 -75 -66 -155 -147z"/>
<path d="M7554 6940 c-9 -15 -88 -91 -341 -328 -78 -73 -152 -147 -165 -165
l-23 -32 47 38 c26 21 48 41 50 45 2 4 64 64 138 133 229 215 312 298 308 311
-3 9 -7 9 -14 -2z"/>
<path d="M5474 6621 c-76 -61 -410 -287 -489 -331 -33 -18 -112 -55 -175 -81
-113 -47 -114 -48 -69 -49 82 0 250 79 417 198 52 37 104 74 116 82 101 70
286 217 286 226 0 15 -35 -3 -86 -45z"/>
<path d="M8534 7588 l-19 -23 23 19 c21 18 27 26 19 26 -2 0 -12 -10 -23 -22z"/>
<path d="M4660 6040 c-60 -11 -100 -27 -100 -40 0 -6 12 -8 28 -5 169 30 338
31 435 1 66 -21 58 2 -9 28 -55 22 -273 32 -354 16z"/>
<path d="M4700 5970 c-64 -13 -150 -41 -155 -51 -8 -13 1 -12 138 12 110 20
133 21 227 10 58 -6 116 -14 130 -17 48 -11 -8 24 -66 41 -54 16 -210 19 -274
5z"/>
<path d="M5145 5929 c-9 -13 -13 -10 73 -53 40 -20 105 -59 144 -87 83 -59 98
-67 98 -46 0 26 -107 113 -192 156 -81 42 -112 49 -123 30z"/>
<path d="M4364 5897 c-92 -42 -163 -91 -247 -174 -133 -132 -257 -353 -257
-461 0 -29 2 -33 14 -22 8 6 22 35 32 63 34 106 122 261 190 337 101 111 155
153 280 214 63 31 114 61 114 66 0 19 -55 9 -126 -23z"/>
<path d="M4738 5898 c-18 -3 -46 -8 -63 -11 -16 -3 -55 -17 -85 -31 -39 -19
-47 -25 -25 -21 69 12 92 17 125 25 91 24 226 21 323 -6 9 -3 17 -1 17 4 0 30
-204 58 -292 40z"/>
<path d="M4710 5824 c-56 -11 -165 -52 -158 -59 2 -2 46 5 98 15 112 23 173
24 295 6 103 -16 133 -5 54 19 -53 17 -237 29 -289 19z"/>
<path d="M4710 5753 c-166 -27 -358 -137 -462 -264 -108 -134 -178 -330 -180
-509 -1 -84 -16 -22 -17 70 -1 78 21 182 58 279 11 30 19 56 17 58 -2 2 -17
-23 -35 -56 -63 -120 -88 -295 -61 -441 19 -107 95 -277 158 -357 33 -41 229
-201 239 -195 3 2 9 -1 12 -6 5 -8 116 -74 184 -109 15 -8 55 -18 88 -23 62
-9 77 -15 66 -26 -4 -4 -32 0 -64 8 -32 9 -69 16 -82 16 -13 1 -27 6 -30 11
-4 6 -49 29 -101 52 -52 23 -110 53 -127 67 -40 30 -44 16 -5 -20 26 -25 202
-118 252 -133 14 -4 31 -12 39 -18 7 -6 21 -12 30 -12 50 -2 141 -19 141 -26
0 -4 15 -6 34 -4 18 1 40 -1 47 -6 19 -12 -104 -10 -160 2 -55 12 -65 4 -20
-15 19 -9 27 -16 19 -16 -24 -1 20 -30 44 -30 21 1 21 1 1 17 -19 15 -19 15 5
8 14 -4 43 -10 65 -12 22 -3 51 -12 65 -20 23 -14 23 -14 6 0 -18 15 -18 16 3
14 11 -1 21 -5 21 -9 0 -4 9 -5 20 -3 11 2 22 0 25 -4 8 -15 -97 -21 -165 -11
-87 13 -110 13 -90 0 8 -5 36 -10 63 -10 28 0 47 -5 47 -11 0 -8 -31 -10 -107
-6 -151 8 -194 15 -258 42 -16 7 -52 20 -80 30 -27 10 -83 35 -123 57 -40 22
-75 38 -78 35 -32 -32 153 -135 331 -184 88 -24 118 -27 255 -27 139 0 165 2
252 27 114 32 246 92 326 147 67 47 202 179 277 270 70 87 109 159 147 271 28
87 31 107 35 269 4 136 2 194 -11 260 -22 112 -60 236 -88 282 -13 20 -38 62
-56 93 -18 30 -37 55 -42 55 -14 0 -15 2 45 -122 81 -165 106 -263 111 -425 4
-122 3 -133 -13 -134 -11 0 -13 -3 -5 -6 7 -3 11 -20 11 -41 -2 -31 -3 -33 -6
-9 -6 38 -25 29 -38 -16 -18 -63 -32 -64 -27 -2 4 46 2 55 -12 55 -12 0 -16
-10 -16 -37 0 -21 -3 -48 -6 -60 -11 -41 -23 -24 -20 30 3 58 -2 87 -15 87 -5
0 -12 -13 -15 -30 -11 -53 -26 -33 -20 28 8 97 18 141 32 146 10 4 12 -6 7
-45 -5 -45 -4 -49 16 -49 22 0 21 -4 24 125 2 47 -42 222 -59 235 -18 16 -18
5 1 -56 16 -53 20 -114 7 -114 -4 0 -17 32 -27 72 -11 40 -30 83 -42 97 -25
26 -28 22 -14 -27 6 -20 6 -32 0 -32 -5 0 -9 7 -9 17 0 24 -48 104 -81 135
-30 28 -37 22 -18 -15 6 -12 -29 19 -77 69 -175 181 -337 256 -545 253 -52 -1
-105 -4 -119 -6z m245 -65 c71 -16 181 -64 245 -108 190 -131 291 -346 276
-586 -3 -50 -11 -104 -17 -120 -6 -16 -13 -39 -15 -51 -1 -12 -22 -59 -46
-105 -43 -83 -157 -218 -184 -218 -8 0 -14 -4 -14 -8 0 -23 -152 -86 -269
-113 -70 -15 -224 -6 -311 19 -211 61 -367 212 -441 422 -28 80 -37 242 -19
333 38 196 172 380 339 465 165 85 297 105 456 70z m629 -484 c3 -8 2 -12 -4
-9 -6 3 -10 10 -10 16 0 14 7 11 14 -7z m6 -116 c0 -50 -2 -89 -5 -86 -9 9
-11 178 -2 178 4 0 7 -41 7 -92z m58 80 c6 -51 6 -61 -6 -65 -9 -4 -12 5 -8
34 5 44 5 43 9 43 2 0 4 -6 5 -12z m-34 -303 c3 -8 1 -15 -4 -15 -6 0 -10 7
-10 15 0 8 2 15 4 15 2 0 6 -7 10 -15z m170 -42 c-15 -59 -24 -79 -18 -38 4
22 7 46 7 53 0 6 4 12 9 12 5 0 5 -12 2 -27z m-64 -49 c0 -8 -5 -12 -10 -9 -6
4 -8 11 -5 16 9 14 15 11 15 -7z m-1468 -242 c37 -48 63 -71 170 -155 l23 -18
-24 12 c-103 49 -241 205 -266 299 -3 14 8 1 24 -29 17 -30 50 -79 73 -109z
m1301 -107 c-3 -9 -8 -14 -10 -11 -3 3 -2 9 2 15 9 16 15 13 8 -4z m-698 -245
c4 -6 -6 -10 -24 -10 -16 0 -33 5 -36 10 -4 6 6 10 24 10 16 0 33 -4 36 -10z
m159 -54 c-6 -16 -86 -27 -81 -11 2 5 18 10 34 10 17 0 35 3 39 8 11 11 14 9
8 -7z m66 -70 c0 -2 -7 -7 -16 -10 -8 -3 -12 -2 -9 4 6 10 25 14 25 6z"/>
<path d="M5116 5562 c53 -39 130 -118 167 -172 27 -39 22 -35 -39 26 -69 71
-155 134 -182 134 -8 0 4 -14 27 -31 24 -17 41 -32 39 -34 -2 -2 -35 12 -73
31 -95 46 -200 68 -285 60 -227 -21 -409 -174 -464 -390 -11 -40 -19 -53 -42
-62 -15 -6 -35 -9 -42 -6 -10 3 -13 -1 -10 -14 3 -16 12 -19 58 -19 l55 0 18
60 c64 214 181 327 383 370 88 19 136 19 209 0 89 -24 225 -106 225 -137 0 -5
-17 5 -37 22 -50 45 -132 80 -198 87 -30 3 -55 3 -55 0 0 -3 33 -15 73 -27 39
-12 90 -32 112 -45 61 -35 158 -132 151 -151 -3 -8 -2 -13 2 -10 5 3 18 -17
30 -44 17 -39 21 -67 20 -131 -2 -141 -45 -244 -140 -341 -37 -37 -63 -68 -59
-68 4 0 16 9 26 20 10 11 25 20 33 20 9 0 13 3 10 6 -3 3 11 23 32 45 21 22
52 69 69 105 17 35 32 64 35 64 9 0 -19 -76 -40 -110 -46 -75 -115 -139 -187
-175 -76 -37 -194 -67 -230 -58 -12 3 -47 6 -77 8 -147 9 -297 144 -356 319
l-14 41 6 -40 c3 -22 7 -49 10 -60 4 -16 3 -17 -5 -5 -9 13 -20 44 -47 138 -2
6 -8 12 -14 12 -21 0 -22 -31 -2 -90 12 -33 19 -60 17 -60 -6 0 -43 84 -49
113 -4 15 -11 27 -16 27 -6 0 -8 -12 -4 -27 16 -75 39 -151 51 -175 7 -16 11
-28 8 -28 -8 0 -61 110 -81 170 -18 53 -19 54 -22 22 -7 -72 69 -258 140 -339
114 -133 268 -203 448 -203 238 0 407 89 548 290 56 80 84 171 89 295 7 132
-8 201 -68 323 -45 92 -118 174 -211 236 -62 42 -99 49 -42 8z m64 -130 c0 -3
-9 3 -20 13 -11 10 -20 23 -20 28 0 6 9 0 20 -13 11 -13 20 -25 20 -28z m95
-463 c-6 -33 -15 -36 -15 -6 0 15 4 27 9 27 6 0 8 -10 6 -21z"/>
<path d="M4470 5530 c-19 -16 -30 -29 -25 -29 6 0 26 13 45 29 19 16 31 29 25
29 -5 0 -26 -13 -45 -29z"/>
<path d="M4715 5402 c-47 -9 -132 -59 -180 -106 -76 -76 -100 -132 -100 -236
0 -76 4 -93 34 -158 133 -283 531 -293 678 -18 86 160 27 367 -133 469 -76 47
-203 68 -299 49z m-151 -194 c-4 -7 -16 -24 -26 -38 -10 -14 -20 -36 -23 -49
-2 -13 -7 -26 -10 -30 -18 -17 8 57 31 90 25 36 45 55 28 27z m531 -38 c10
-11 16 -20 13 -20 -3 0 -13 9 -23 20 -10 11 -16 20 -13 20 3 0 13 -9 23 -20z
m-518 -38 c-9 -9 -20 -29 -26 -42 -8 -21 -10 -22 -10 -6 -1 11 9 30 21 43 25
27 39 32 15 5z m554 -34 c18 -33 -16 -9 -36 25 l-18 32 22 -20 c13 -11 27 -28
32 -37z m-16 -28 c27 -30 12 -34 -15 -5 -13 14 -19 25 -13 25 5 0 18 -9 28
-20z m-592 -5 c-3 -9 -8 -14 -10 -11 -3 3 -2 9 2 15 9 16 15 13 8 -4z m31 -40
c-23 -35 -29 -25 -7 13 10 18 19 27 21 22 2 -5 -4 -20 -14 -35z m555 -5 c12
-22 20 -40 18 -40 -2 0 -16 18 -31 40 -14 22 -23 40 -18 40 5 0 18 -18 31 -40z
m-9 -51 c11 -19 -2 -69 -13 -52 -3 5 -10 29 -16 52 -8 36 -7 40 6 30 8 -7 18
-20 23 -30z m-158 -8 c46 -29 78 -73 78 -107 0 -9 -15 -31 -33 -49 -87 -87
-304 -78 -352 15 -17 33 -13 51 23 99 35 47 93 71 173 71 55 0 72 -4 111 -29z"/>
<path d="M5007 5399 c7 -7 15 -10 18 -7 3 3 -2 9 -12 12 -14 6 -15 5 -6 -5z"/>
<path d="M4383 5128 c-9 -44 -5 -118 6 -118 3 0 6 36 7 80 0 44 -1 80 -2 80
-2 0 -7 -19 -11 -42z"/>
<path d="M4267 5656 c-15 -13 -27 -29 -27 -37 0 -7 14 2 31 19 38 39 35 51 -4
18z"/>
<path d="M4323 5622 c-77 -62 -178 -181 -171 -203 2 -7 27 17 54 52 60 76 106
124 154 161 19 15 30 27 23 28 -6 0 -33 -17 -60 -38z"/>
<path d="M4197 5594 c-8 -8 1 -24 13 -24 4 0 10 7 14 15 5 15 -14 21 -27 9z"/>
<path d="M5540 5538 c0 -14 53 -98 61 -98 6 0 -4 21 -22 48 -38 56 -39 57 -39
50z"/>
<path d="M5501 5495 c0 -5 6 -21 14 -35 8 -14 14 -20 14 -15 0 6 -6 21 -14 35
-8 14 -14 21 -14 15z"/>
<path d="M5530 5425 c0 -5 5 -17 10 -25 5 -8 10 -10 10 -5 0 6 -5 17 -10 25
-5 8 -10 11 -10 5z"/>
<path d="M5680 5351 c0 -6 9 -44 20 -83 15 -54 20 -103 20 -190 0 -108 1 -117
18 -111 26 10 43 30 37 45 -2 7 -6 42 -9 78 -2 36 -8 76 -14 90 -13 35 -29 89
-37 127 -6 31 -35 68 -35 44z"/>
<path d="M3773 4843 c8 -166 49 -286 145 -432 47 -70 159 -181 184 -181 24 0
21 6 -61 93 -152 160 -229 334 -247 553 -11 132 -28 104 -21 -33z"/>
<path d="M3980 4874 c1 -86 87 -291 160 -379 36 -42 124 -112 94 -74 -6 8 -32
40 -57 71 -65 81 -113 173 -154 291 -38 110 -43 121 -43 91z"/>
<path d="M3925 4794 c24 -162 79 -274 203 -408 74 -82 70 -40 -5 50 -87 103
-156 246 -179 369 -10 53 -28 44 -19 -11z"/>
<path d="M3850 4802 c0 -84 66 -264 131 -359 55 -80 178 -193 211 -193 4 0
-28 35 -70 78 -122 122 -217 291 -245 439 -12 65 -27 84 -27 35z"/>
<path d="M4335 4240 c8 -14 130 -75 201 -101 40 -15 59 -18 67 -10 7 7 5 12
-9 17 -10 4 -68 29 -128 56 -109 47 -143 58 -131 38z"/>
<path d="M4280 4188 c29 -24 162 -88 233 -112 52 -17 97 -21 82 -7 -13 11
-317 141 -330 141 -6 -1 1 -10 15 -22z"/>
<path d="M4620 4120 c0 -5 5 -10 10 -10 6 0 10 5 10 10 0 6 -4 10 -10 10 -5 0
-10 -4 -10 -10z"/>
<path d="M4788 4113 c7 -3 16 -2 19 1 4 3 -2 6 -13 5 -11 0 -14 -3 -6 -6z"/>
<path d="M1007 4914 c-9 -9 -9 -132 -1 -212 4 -39 12 -63 21 -66 12 -5 13 15
7 132 -6 131 -12 161 -27 146z"/>
<path d="M1014 4388 c1 -26 5 -51 9 -54 10 -10 7 45 -3 76 -7 19 -8 14 -6 -22z"/>
<path d="M4330 8973 c-102 -3 -280 -23 -335 -38 -27 -7 -67 -16 -88 -20 -24
-4 -37 -11 -34 -18 3 -7 8 -11 13 -11 5 1 34 4 64 7 51 6 53 5 23 -6 -60 -23
-49 -30 32 -21 44 5 160 9 258 9 161 0 203 6 163 21 -18 7 -72 11 -201 14 -82
2 -93 4 -60 11 22 4 93 8 158 8 86 1 118 4 115 13 -8 23 -44 33 -108 31z"/>
<path d="M4543 8973 c-7 -2 -13 -11 -13 -19 0 -11 17 -14 73 -14 154 0 562
-45 757 -84 231 -46 383 -80 450 -101 41 -12 116 -35 165 -50 50 -15 139 -47
199 -71 60 -25 111 -42 114 -39 14 14 -49 57 -128 89 -256 102 -665 207 -977
250 -223 31 -604 54 -640 39z"/>
<path d="M3700 8874 c-111 -20 -395 -108 -555 -172 -395 -157 -715 -349 -1110
-666 -101 -81 -351 -324 -439 -426 -301 -350 -579 -841 -705 -1245 -58 -184
-35 -214 29 -37 99 274 171 432 305 668 159 280 405 605 588 778 29 26 84 78
122 115 172 165 539 429 763 549 255 137 691 308 947 373 130 33 145 39 145
60 0 10 -3 18 -7 18 -5 -1 -42 -8 -83 -15z"/>
<path d="M4072 8860 c-40 -4 -70 -14 -80 -25 -16 -16 -15 -17 23 -10 81 14
292 9 393 -10 25 -5 32 -2 32 10 0 8 -8 15 -17 15 -10 0 -58 5 -108 10 -156
16 -178 17 -243 10z"/>
<path d="M4040 8810 c0 -10 31 -16 125 -24 102 -9 158 -16 208 -26 60 -12 87
-13 87 -1 0 15 -29 22 -170 42 -148 20 -250 24 -250 9z"/>
<path d="M4545 8790 c-4 -6 31 -10 97 -10 57 0 162 -7 233 -15 72 -8 159 -17
195 -21 57 -6 128 -20 355 -69 197 -42 505 -126 505 -137 0 -18 -126 4 -212
37 -10 4 -18 3 -18 -2 0 -4 35 -22 77 -38 75 -29 126 -34 148 -15 7 6 35 11
63 12 28 2 48 6 44 10 -4 4 -70 23 -147 42 -162 40 -468 113 -505 120 -14 3
-72 14 -130 26 -95 19 -180 31 -310 45 -25 3 -83 9 -130 15 -108 13 -257 13
-265 0z"/>
<path d="M4166 8751 c-8 -13 35 -29 100 -36 61 -6 156 -23 187 -31 11 -4 17 0
17 10 0 18 -36 28 -180 50 -121 19 -117 19 -124 7z"/>
<path d="M5744 8731 c4 -5 72 -30 154 -56 187 -59 251 -83 279 -101 28 -18 45
3 18 22 -24 18 -175 72 -265 95 -41 11 -92 26 -113 34 -42 17 -81 20 -73 6z"/>
<path d="M4277 8666 c12 -9 43 -19 70 -21 26 -3 65 -8 86 -11 29 -4 37 -2 37
9 0 21 -17 25 -122 33 -87 6 -92 5 -71 -10z"/>
<path d="M5744 8671 c3 -5 52 -23 108 -41 57 -18 129 -43 162 -57 32 -13 64
-22 71 -19 7 2 29 1 49 -4 26 -6 36 -5 33 3 -2 6 -53 26 -113 43 -60 17 -147
43 -194 58 -88 27 -125 32 -116 17z"/>
<path d="M4550 8652 c0 -5 78 -12 173 -15 94 -4 183 -8 197 -10 14 -3 52 -8
85 -12 33 -4 67 -9 75 -10 8 -1 35 -6 60 -9 153 -24 309 -64 484 -125 65 -23
76 -25 76 -13 0 15 -279 106 -390 127 -115 22 -290 50 -405 64 -96 12 -355 14
-355 3z"/>
<path d="M4350 8617 c0 -12 83 -57 105 -57 42 0 28 25 -22 39 -80 22 -83 22
-83 18z"/>
<path d="M4542 8521 c-42 -8 -42 -26 1 -25 114 3 160 10 152 25 -7 10 -100 10
-153 0z"/>
<path d="M4771 8521 c-19 -13 4 -18 117 -26 97 -7 104 -8 187 -25 28 -5 73
-14 100 -19 137 -25 343 -83 398 -113 25 -13 42 -17 48 -11 6 6 5 14 -3 20
-29 22 -289 101 -392 118 -17 3 -87 16 -156 29 -146 28 -279 40 -299 27z"/>
<path d="M5703 8517 c5 -16 97 -41 108 -30 5 5 -17 16 -52 25 -41 11 -59 13
-56 5z"/>
<path d="M2714 8376 c-122 -64 -209 -116 -289 -173 -33 -24 -94 -67 -135 -97
-162 -115 -350 -278 -350 -303 0 -17 -13 -27 182 132 165 135 338 256 521 367
84 50 158 97 166 104 33 30 0 20 -95 -30z"/>
<path d="M4620 8398 c0 -10 30 -13 110 -15 158 -2 330 -36 540 -107 58 -19
139 -45 180 -57 41 -12 80 -26 87 -31 7 -6 14 -5 18 3 11 17 -7 25 -135 65
-63 19 -169 53 -235 74 -66 21 -176 48 -244 59 -141 24 -321 29 -321 9z"/>
<path d="M5435 8301 c-5 -8 109 -51 136 -51 24 0 -11 27 -53 40 -61 19 -76 21
-83 11z"/>
<path d="M5355 8210 c-8 -13 10 -21 105 -52 100 -33 90 -31 90 -14 0 8 -24 20
-57 30 -32 10 -75 23 -95 31 -21 7 -40 10 -43 5z"/>
<path d="M5412 8129 c5 -15 116 -55 126 -45 10 10 -13 27 -49 36 -19 5 -45 12
-58 16 -18 5 -23 4 -19 -7z"/>
<path d="M5472 8048 c6 -16 55 -34 65 -25 9 10 -27 36 -50 37 -11 0 -17 -5
-15 -12z"/>
<path d="M3905 6833 c-65 -15 -302 -126 -333 -157 -10 -10 -8 -17 12 -35 l25
-23 72 47 c77 51 146 82 242 110 31 9 57 20 57 25 0 9 -41 41 -50 39 -3 -1
-14 -3 -25 -6z"/>
<path d="M3885 6736 c-49 -18 -131 -54 -182 -80 l-92 -48 21 -29 c12 -16 23
-29 25 -29 2 0 53 30 113 66 110 66 205 104 261 104 35 0 37 13 7 34 -31 22
-50 20 -153 -18z"/>
<path d="M3965 6681 c-88 -25 -295 -135 -295 -156 0 -5 5 -17 10 -25 8 -13 12
-13 32 -1 25 16 166 95 198 111 11 5 28 14 38 19 10 5 50 17 89 26 52 13 70
21 66 31 -7 19 -64 17 -138 -5z"/>
<path d="M4050 6624 c-88 -26 -268 -107 -320 -144 -31 -22 -36 -35 -21 -59 7
-11 27 -3 98 41 118 75 163 97 262 133 47 16 86 36 89 43 5 17 -10 15 -108
-14z"/>
<path d="M4105 6559 c-71 -27 -146 -57 -165 -65 -89 -41 -128 -60 -171 -87
-38 -23 -45 -32 -41 -53 5 -30 13 -30 49 0 74 62 310 181 445 225 42 14 59 31
31 31 -10 -1 -76 -23 -148 -51z"/>
<path d="M4275 6545 c-44 -13 -146 -53 -228 -89 -214 -94 -317 -162 -317 -208
0 -18 4 -17 43 14 60 50 148 105 240 150 87 43 317 138 335 138 6 0 14 5 17
10 8 14 2 13 -90 -15z"/>
<path d="M4386 6500 c-49 -10 -98 -23 -110 -28 -11 -6 -73 -32 -136 -57 -142
-57 -260 -121 -348 -187 -70 -54 -88 -72 -95 -101 -3 -10 26 9 71 46 91 74
135 103 228 150 111 56 332 143 412 162 39 9 72 21 72 26 0 5 -1 9 -2 8 -2 0
-43 -9 -92 -19z"/>
<path d="M4345 6418 c-224 -76 -467 -200 -441 -225 4 -4 24 2 44 15 111 67
358 177 445 196 15 4 27 11 27 16 0 12 -36 12 -75 -2z"/>
<path d="M7631 6356 c-8 -10 -2 -38 28 -118 86 -233 149 -554 153 -790 2 -87
7 -128 14 -128 41 0 30 277 -22 558 -29 157 -128 471 -154 487 -4 3 -13 -1
-19 -9z"/>
<path d="M3753 6120 c-73 -54 -101 -85 -89 -97 2 -3 17 6 32 19 46 37 150 138
143 138 -3 0 -42 -27 -86 -60z"/>
<path d="M3762 6063 c-41 -30 -76 -63 -79 -72 -3 -9 -13 -24 -22 -35 -14 -16
-14 -18 -1 -15 13 4 190 180 179 179 -2 -1 -37 -26 -77 -57z"/>
<path d="M8200 5795 c-6 -8 -16 -45 -20 -82 -17 -133 -44 -222 -105 -343 -80
-160 -159 -259 -280 -350 -38 -29 -70 -58 -70 -64 0 -17 40 -19 55 -1 7 8 18
15 25 15 22 0 156 132 215 211 79 107 180 321 180 384 0 62 104 -97 155 -240
34 -93 48 -82 19 15 -9 29 -24 69 -35 89 -10 20 -19 40 -19 44 0 11 -90 131
-102 135 -8 4 -12 42 -3 42 7 0 72 -73 106 -120 16 -22 50 -83 74 -135 25 -51
50 -97 56 -101 13 -8 10 3 -34 125 -30 85 -119 217 -174 261 -14 11 -23 23
-19 27 4 4 31 -20 61 -52 30 -33 54 -57 55 -54 0 3 -25 39 -55 79 -54 72 -68
113 -19 55 85 -102 129 -178 207 -355 50 -114 106 -341 122 -500 7 -66 8 -557
2 -567 -3 -5 -8 -37 -11 -73 -14 -146 -61 -376 -117 -570 -88 -308 -158 -476
-317 -760 -305 -543 -772 -1021 -1346 -1378 -311 -193 -532 -297 -869 -408
-121 -41 -207 -74 -207 -81 0 -31 133 2 430 105 124 43 373 160 524 246 437
249 717 477 1082 881 317 352 580 812 727 1270 46 144 100 345 126 470 24 118
37 260 24 268 -5 3 -6 36 -2 79 13 122 9 446 -6 568 -35 291 -140 573 -286
769 -81 108 -118 133 -149 96z"/>
<path d="M8192 5393 c54 -107 84 -189 123 -331 22 -78 41 -94 31 -27 -3 27
-10 63 -16 80 -5 16 -16 53 -24 81 -25 83 -85 204 -102 204 -9 0 -14 -3 -12
-7z"/>
<path d="M8110 5235 c0 -3 11 -27 24 -53 13 -26 32 -71 41 -100 17 -52 35 -69
35 -33 0 27 -40 130 -62 164 -17 24 -38 36 -38 22z"/>
<path d="M8481 5073 c23 -93 26 -114 39 -263 14 -150 11 -419 -6 -544 -7 -54
-15 -119 -18 -145 -22 -202 -131 -572 -243 -831 -124 -286 -266 -524 -469
-785 -189 -244 -551 -587 -829 -787 -330 -237 -679 -413 -1087 -549 -87 -29
-158 -56 -158 -61 0 -27 187 26 470 133 309 118 702 345 970 559 535 430 897
887 1143 1445 84 192 170 461 192 605 4 25 13 70 20 100 8 30 17 82 20 115 4
33 8 71 10 84 25 153 25 544 1 706 -10 66 -19 129 -21 140 -6 44 -38 155 -45
155 -4 0 1 -35 11 -77z"/>
<path d="M8050 5102 c0 -4 6 -16 13 -27 22 -33 36 -96 43 -188 4 -54 12 -91
20 -98 12 -10 14 3 14 71 0 75 -4 90 -39 166 -36 76 -51 99 -51 76z"/>
<path d="M8006 5072 c-4 -6 0 -27 8 -46 8 -19 20 -69 27 -110 11 -70 22 -96
36 -83 7 8 -23 144 -45 201 -11 27 -22 44 -26 38z"/>
<path d="M7945 5019 c-7 -18 49 -149 65 -149 13 0 13 -4 -8 55 -29 80 -49 113
-57 94z"/>
<path d="M7880 4990 c0 -18 41 -88 56 -94 21 -8 17 10 -12 60 -24 41 -44 57
-44 34z"/>
<path d="M8186 4864 c2 -75 7 -131 13 -137 8 -8 11 3 12 39 2 130 -6 224 -20
224 -4 0 -6 -57 -5 -126z"/>
<path d="M7826 4972 c-10 -16 4 -41 26 -48 31 -10 34 4 6 32 -15 15 -28 22
-32 16z"/>
<path d="M3136 4933 c-32 -148 -28 -391 9 -530 30 -114 87 -239 143 -315 77
-104 112 -114 47 -13 -75 118 -129 253 -162 405 -14 66 -18 129 -18 283 0 185
-5 234 -19 170z"/>
<path d="M8249 4833 c0 -65 -2 -127 -4 -139 -3 -12 2 -30 10 -40 12 -17 14 -1
14 133 -1 84 -5 155 -10 159 -5 3 -9 -45 -10 -113z"/>
<path d="M8308 4758 c-3 -168 4 -228 24 -228 8 0 9 314 1 373 -12 87 -22 25
-25 -145z"/>
<path d="M3005 4920 c-12 -20 -34 -243 -31 -322 3 -94 18 -153 51 -193 18 -23
27 -27 49 -21 23 6 27 11 22 34 -3 15 -8 50 -11 77 -3 28 -9 75 -13 105 -8 59
-6 178 3 275 6 57 5 58 -8 30 -8 -16 -17 -66 -22 -110 -8 -85 -9 -261 -1 -273
3 -5 1 -14 -3 -21 -18 -28 -33 106 -29 267 2 89 2 162 1 162 -1 0 -5 -4 -8
-10z"/>
<path d="M8376 4922 c-9 -15 2 -555 12 -582 9 -23 9 -23 14 -2 11 40 -5 578
-17 590 -2 2 -6 -1 -9 -6z"/>
<path d="M8442 4639 c2 -300 -4 -555 -16 -644 -6 -49 -6 -50 8 -19 13 28 17
53 31 191 13 124 15 357 6 493 -12 168 -21 263 -27 269 -2 2 -3 -129 -2 -290z"/>
<path d="M2937 4913 c-5 -8 -13 -55 -22 -123 -21 -151 10 -356 56 -381 24 -12
24 -6 -3 72 -19 56 -21 87 -22 252 0 103 -1 187 -2 187 -2 0 -5 -3 -7 -7z"/>
<path d="M2839 4853 c-13 -35 -14 -225 0 -290 11 -56 33 -98 56 -107 21 -8 26
7 12 35 -27 51 -41 147 -42 266 0 123 -6 147 -26 96z"/>
<path d="M3329 4813 c-2 -43 3 -165 7 -190 24 -145 75 -284 147 -403 41 -68
130 -179 153 -193 27 -16 22 12 -9 54 -87 115 -160 256 -208 401 -39 121 -45
147 -64 296 -6 49 -24 73 -26 35z"/>
<path d="M2748 4805 c-10 -10 3 -224 16 -262 7 -21 23 -43 37 -50 27 -14 37
-9 22 9 -18 22 -51 189 -52 266 -1 38 -9 51 -23 37z"/>
<path d="M2663 4774 c-9 -24 7 -184 22 -219 15 -38 60 -58 49 -22 -21 66 -35
129 -40 190 -7 65 -18 84 -31 51z"/>
<path d="M2586 4741 c-12 -19 17 -164 36 -183 11 -11 22 -18 24 -15 7 7 -38
207 -47 207 -4 0 -10 -4 -13 -9z"/>
<path d="M2496 4698 c11 -62 34 -137 45 -144 24 -14 30 14 15 67 -9 30 -17 66
-18 82 -2 21 -8 27 -25 27 -20 0 -22 -4 -17 -32z"/>
<path d="M2420 4682 c0 -51 30 -122 51 -122 24 0 24 -2 -3 81 -23 71 -48 92
-48 41z"/>
<path d="M2340 4666 c0 -19 39 -104 51 -112 25 -15 26 15 2 69 -24 52 -53 76
-53 43z"/>
<path d="M2275 4650 c-9 -14 44 -100 62 -100 16 0 16 1 -13 68 -18 41 -36 53
-49 32z"/>
<path d="M3110 4311 c0 -11 119 -191 126 -191 6 0 -16 48 -61 128 -22 40 -46
72 -52 72 -7 0 -13 -4 -13 -9z"/>
<path d="M5650 4202 c-99 -104 -302 -246 -435 -304 -130 -58 -214 -73 -405
-72 -96 0 -200 5 -230 11 -31 6 -69 14 -85 18 l-30 6 32 -15 c18 -8 47 -17 65
-20 18 -3 56 -9 83 -13 28 -4 111 -8 185 -8 148 1 247 18 360 64 63 25 220
107 230 120 3 3 30 25 60 47 77 58 152 126 200 184 23 28 40 50 38 50 -1 0
-32 -31 -68 -68z"/>
<path d="M2975 2609 c-7 -10 21 -38 38 -39 14 0 7 38 -9 44 -21 8 -22 8 -29
-5z"/>
<path d="M2935 2561 c-5 -10 40 -51 56 -51 17 0 9 29 -13 44 -26 18 -35 20
-43 7z"/>
<path d="M2887 2514 c-6 -6 75 -74 87 -74 14 0 4 26 -21 52 -25 27 -52 35 -66
22z"/>
<path d="M2810 2437 c0 -25 111 -117 140 -117 14 0 -117 129 -132 130 -5 0 -8
-6 -8 -13z"/>
<path d="M2706 2351 c-6 -8 33 -54 118 -139 73 -74 126 -120 126 -110 0 25
-235 265 -244 249z"/>
<path d="M4670 1541 c0 -5 15 -20 33 -34 17 -14 54 -46 82 -71 l50 -44 -40 4
c-22 2 -57 7 -77 9 -41 6 -52 -9 -15 -19 12 -3 50 -6 83 -6 58 0 65 -2 118
-46 31 -26 55 -48 53 -50 -2 -2 -28 0 -58 5 -97 17 -179 19 -179 4 0 -7 10
-14 23 -14 12 -1 33 -3 47 -4 63 -6 156 -7 170 -1 8 3 26 -3 40 -14 l25 -20
-144 0 c-115 0 -142 -3 -133 -12 9 -9 60 -13 167 -15 85 -1 159 -5 165 -8 32
-20 -2 -26 -142 -25 -194 1 -201 1 -163 -11 17 -5 108 -9 204 -8 148 1 176 -2
190 -16 15 -15 6 -16 -109 -15 -252 2 -275 1 -261 -12 9 -10 67 -13 221 -13
114 0 206 -3 204 -7 -8 -13 -81 -19 -240 -20 -129 -2 -161 -5 -157 -15 4 -10
46 -13 197 -11 161 3 196 6 224 21 51 28 42 50 -40 103 -101 65 -247 174 -348
259 -47 40 -101 82 -120 94 -36 22 -70 28 -70 12z"/>
<path d="M4690 1352 c0 -15 26 -20 120 -25 74 -4 74 -4 40 11 -46 19 -160 29
-160 14z"/>
<path d="M4367 1229 c7 -7 15 -10 18 -7 3 3 -2 9 -12 12 -14 6 -15 5 -6 -5z"/>
</g>
</svg>
